SplineFontDB: 3.0
FontName: TechnaSans-Regular
FullName: Techna Sans Regular
FamilyName: Techna Sans
Weight: Regular
Copyright: Copyright (c) 2019, Carl Enlund
Version: 1.003
ItalicAngle: 0
UnderlinePosition: -150
UnderlineWidth: 50
Ascent: 800
Descent: 200
InvalidEm: 0
LayerCount: 2
Layer: 0 0 "Back" 1
Layer: 1 0 "Fore" 0
XUID: [1021 637 837473831 1446149]
StyleMap: 0x0040
FSType: 0
OS2Version: 0
OS2_WeightWidthSlopeOnly: 0
OS2_UseTypoMetrics: 1
CreationTime: 1557605594
ModificationTime: 1561557814
PfmFamily: 33
TTFWeight: 400
TTFWidth: 5
LineGap: 90
VLineGap: 0
Panose: 2 0 0 0 0 0 0 0 0 0
OS2TypoAscent: 0
OS2TypoAOffset: 1
OS2TypoDescent: 0
OS2TypoDOffset: 1
OS2TypoLinegap: 0
OS2WinAscent: 0
OS2WinAOffset: 1
OS2WinDescent: 0
OS2WinDOffset: 1
HheadAscent: 0
HheadAOffset: 1
HheadDescent: 0
HheadDOffset: 1
OS2Vendor: 'UKWN'
Lookup: 1 0 0 "'tnum' Tabular Numbers lookup 3" { "'tnum' Tabular Numbers lookup 3-1"  } ['tnum' ('DFLT' <'dflt' > 'grek' <'dflt' > 'latn' <'dflt' > ) ]
Lookup: 1 0 0 "'ss01' Style Set 1 in Latin lookup 1" { "'ss01' Style Set 1 in Latin lookup 1-1"  } ['ss01' ('DFLT' <'dflt' > 'latn' <'dflt' > ) ]
Lookup: 4 0 1 "'liga' Standard Ligatures in Latin lookup 0" { "'liga' Standard Ligatures in Latin lookup 0-1"  } ['liga' ('DFLT' <'dflt' > 'latn' <'dflt' > ) ]
Lookup: 258 8 0 "'kern' Horizontal Kerning lookup 0" { "'kern' Horizontal Kerning lookup 0-2" [150,15,4] "'kern' Horizontal Kerning lookup 0-1" [150,0,4] } ['kern' ('DFLT' <'dflt' > 'latn' <'dflt' > ) ]
MarkAttachClasses: 1
DEI: 91125
KernClass2: 66+ 53 "'kern' Horizontal Kerning lookup 0-1"
 37 a h m n agrave aogonek nacute uni0146
 70 aacute acircumflex atilde adieresis aring ntilde amacron abreve ncaron
 25 b o p ograve oacute thorn
 50 ocircumflex otilde odieresis omacron ohungarumlaut
 22 c cent ccedilla cacute
 6 ccaron
 40 e ae egrave eacute edotaccent eogonek oe
 36 ecircumflex edieresis emacron ecaron
 5 f f_f

StartChar: D
Encoding: 36 68 0
Width: 694
VWidth: 0
Flags: HMW
AnchorPoint: "Top" 326 744 basechar 0
LayerCount: 2
Fore
SplineSet
317 121 m 1
 317 0 l 1
 143 0 l 1
 143 121 l 1
 317 121 l 1
327 688 m 5
 321 567 l 5
 143 567 l 1
 143 688 l 1
 327 688 l 5
61 0 m 1
 61 688 l 1
 195 688 l 1
 195 0 l 1
 61 0 l 1
327 688 m 5
 552.057617188 688 673 540.865234375 673 350 c 3
 673 152.017578125 548.622070312 0 317 0 c 1
 317 121 l 1
 466.310546875 121 537 221.337890625 537 346 c 3
 537 468.446289062 467.620117188 567 321 567 c 5
 327 688 l 5
EndSplineSet
EndChar

StartChar: E
Encoding: 37 69 1
Width: 549
VWidth: 0
Flags: HMW
AnchorPoint: "Ogonek" 388 0 basechar 0
AnchorPoint: "Top" 298 744 basechar 0
LayerCount: 2
Fore
SplineSet
126 413.916992188 m 1
 458 413.916992188 l 1
 427 293 l 1
 126 292.916992188 l 1
 126 413.916992188 l 1
126 122 m 1
 509 122 l 1
 542 0 l 1
 126 0 l 1
 126 122 l 1
126 688 m 1
 529 688 l 1
 497 566 l 1
 126 566 l 1
 126 688 l 1
61 0 m 1
 61 688 l 1
 195 688 l 1
 195 0 l 1
 61 0 l 1
EndSplineSet
EndChar

StartChar: C
Encoding: 35 67 2
Width: 607
VWidth: 0
Flags: HMW
AnchorPoint: "Top" 377 744 basechar 0
AnchorPoint: "Cedilla" 381 0 basechar 0
LayerCount: 2
Fore
SplineSet
553 533 m 1
 520.111328125 552.58836411 473 570 405 570 c 3
 299.700531377 570 159 515.961951963 159 351 c 7
 159 179.292923233 298.496296296 112 428 112 c 3
 483.46875 112 542.285714286 129.41025641 578 152 c 1
 578 25 l 1
 551.365853659 5.94129464286 484 -11 410 -11 c 3
 247.42578125 -11 21 73.0570746528 21 343 c 7
 21 625.215762868 263.901367188 697 418 697 c 3
 499 697 558 677 586 657 c 1
 553 533 l 1
EndSplineSet
EndChar

StartChar: G
Encoding: 39 71 3
Width: 688
VWidth: 0
Flags: HMW
AnchorPoint: "Bottom" 390 -44 basechar 0
AnchorPoint: "Top" 388 744 basechar 0
LayerCount: 2
Fore
SplineSet
596 528 m 1
 549.163352273 553.083333333 492.145809659 571 422 571 c 3
 305.922803474 571 159 523.383789062 159 348 c 3
 159 182 289.533807829 111 442 111 c 3
 503 111 559.02793362 130.6640625 588 149 c 1
 636 21 l 1
 591.333007812 3.54545454545 509.874023438 -11 435 -11 c 3
 241 -11 21 82 21 343 c 3
 21 627 265.98046875 697 425 697 c 3
 519.324450306 697 585.317639538 677.235294118 628 655 c 1
 596 528 l 1
507 22 m 1
 507 357 l 1
 636 357 l 1
 636 21 l 1
 507 22 l 1
344 407 m 1
 636 407 l 1
 636 287 l 1
 317 287 l 1
 344 407 l 1
EndSplineSet
EndChar

StartChar: T
Encoding: 52 84 4
Width: 571
VWidth: 0
Flags: HMW
AnchorPoint: "Bottom" 296 -44 basechar 0
AnchorPoint: "Cedilla" 296 0 basechar 0
AnchorPoint: "Top" 295 744 basechar 0
LayerCount: 2
Fore
SplineSet
566 688 m 1
 566 566 l 1
 -3 566 l 1
 29 688 l 1
 566 688 l 1
228 0 m 1
 228 639 l 1
 362 639 l 1
 362 0 l 1
 228 0 l 1
EndSplineSet
EndChar

StartChar: H
Encoding: 40 72 5
Width: 680
VWidth: 0
Flags: HMW
LayerCount: 2
Fore
SplineSet
122 413.916992188 m 1
 558 413.916992188 l 5
 558 294 l 5
 122 293.916992188 l 1
 122 413.916992188 l 1
484 0 m 5
 484 688 l 5
 618 688 l 5
 618 0 l 5
 484 0 l 5
62 0 m 1
 62 688 l 1
 196 688 l 1
 196 0 l 1
 62 0 l 1
EndSplineSet
EndChar

StartChar: N
Encoding: 46 78 6
Width: 690
VWidth: 0
Flags: HMW
AnchorPoint: "Bottom" 348 -44 basechar 0
AnchorPoint: "Top" 345 744 basechar 0
LayerCount: 2
Fore
SplineSet
132 652 m 1
 173 688 l 1
 251 688 l 1
 570 36 l 1
 531 0 l 1
 452 0 l 1
 132 652 l 1
494 0 m 1
 494 688 l 1
 628 688 l 1
 628 0 l 1
 494 0 l 1
62 0 m 1
 62 688 l 1
 196 688 l 1
 196 0 l 1
 62 0 l 1
EndSplineSet
EndChar

StartChar: A
Encoding: 33 65 7
Width: 657
VWidth: 0
Flags: HMW
AnchorPoint: "Ogonek" 542 0 basechar 0
AnchorPoint: "Top" 329 744 basechar 0
LayerCount: 2
Fore
SplineSet
509 0 m 1
 285 688 l 1
 417 688 l 1
 651 0 l 1
 509 0 l 1
6 0 m 1
 243 688 l 5
 369 688 l 1
 142 0 l 1
 6 0 l 1
117 270 m 1
 541 270 l 1
 541 157 l 1
 117 157 l 1
 117 270 l 1
EndSplineSet
EndChar

StartChar: B
Encoding: 34 66 8
Width: 592
VWidth: 0
Flags: HMW
LayerCount: 2
Fore
SplineSet
325 116 m 1
 330 0 l 1
 126 0 l 1
 126 116 l 1
 325 116 l 1
406 404 m 1
 406 292 l 1
 126 292 l 1
 126 404 l 1
 406 404 l 1
360 369 m 1
 493.631743906 369 561 292.20703125 561 195 c 3
 561 83.423828125 478.42578125 0 330 0 c 1
 325 116 l 1
 392.375976562 116 420 152.551757812 420 205 c 3
 420 256.116210938 394.2265625 292 328 292 c 1
 360 369 l 1
334 688 m 1
 330 569 l 1
 126 569 l 1
 126 688 l 1
 334 688 l 1
61 0 m 1
 61 688 l 1
 195 688 l 1
 195 0 l 1
 61 0 l 1
334 688 m 1
 470 688 545 604.553710938 545 510 c 3
 545 416.14453125 479.000466087 345 359 345 c 1
 327 404 l 1
 380.46875 404 408 440.83984375 408 488 c 3
 408 532 381.379882812 569 330 569 c 1
 334 688 l 1
EndSplineSet
EndChar

StartChar: F
Encoding: 38 70 9
Width: 526
VWidth: 0
Flags: HMW
LayerCount: 2
Fore
SplineSet
126 406.916992188 m 1
 452 406.916992188 l 1
 420 286 l 1
 126 286 l 1
 126 406.916992188 l 1
  Spiro
    126 406.917 v
    452 406.917 v
    420 286 v
    126 286 v
    0 0 z
  EndSpiro
126 688 m 1
 526 688 l 1
 493 566 l 1
 126 566 l 1
 126 688 l 1
61 0 m 1
 61 688 l 1
 195 688 l 1
 195 0 l 1
 61 0 l 1
  Spiro
    61 0 v
    61 688 v
    195 688 v
    195 0 v
    0 0 z
  EndSpiro
EndSplineSet
EndChar

StartChar: I
Encoding: 41 73 10
Width: 266
VWidth: 0
Flags: HMW
AnchorPoint: "Ogonek" 107 0 basechar 0
AnchorPoint: "Top" 133 744 basechar 0
LayerCount: 2
Fore
SplineSet
66 0 m 1
 66 688 l 1
 200 688 l 1
 200 0 l 1
 66 0 l 1
EndSplineSet
EndChar

StartChar: L
Encoding: 44 76 11
Width: 510
VWidth: 0
Flags: HMW
AnchorPoint: "Bottom" 290 -44 basechar 0
AnchorPoint: "Caron" 342 688 basechar 0
AnchorPoint: "Top" 129 744 basechar 0
LayerCount: 2
Fore
SplineSet
61 0 m 1
 61 688 l 1
 195 688 l 1
 195 0 l 1
 61 0 l 1
126 0 m 1
 126 122 l 1
 512 122 l 1
 481 0 l 1
 126 0 l 1
EndSplineSet
EndChar

StartChar: M
Encoding: 45 77 12
Width: 781
VWidth: 0
Flags: HMW
LayerCount: 2
Fore
SplineSet
586 0 m 1
 586 688 l 1
 720 688 l 1
 720 0 l 1
 586 0 l 1
351 253 m 1
 354 364 l 1
 544 688 l 1
 663 688 l 1
 432 253 l 1
 351 253 l 1
350 253 m 1
 115 688 l 1
 241 688 l 1
 429 370 l 1
 431 253 l 1
 350 253 l 1
61 0 m 1
 61 688 l 1
 195 688 l 1
 195 0 l 1
 61 0 l 1
EndSplineSet
EndChar

StartChar: O
Encoding: 47 79 13
Width: 786
VWidth: 0
Flags: HMW
AnchorPoint: "Top" 393 744 basechar 0
LayerCount: 2
Fore
SplineSet
393 706 m 3
 636.3828125 706 765 536.621975104 765 346 c 3
 765 153.155141615 636.3828125 -18 393 -18 c 3
 149.6171875 -18 21 153.155141615 21 346 c 3
 21 536.621975104 149.6171875 706 393 706 c 3
393 583 m 3
 238.89453125 583 158 466.483605336 158 346 c 3
 158 223.44901123 238.89453125 105 393 105 c 3
 547.10546875 105 628 223.44901123 628 346 c 3
 628 466.483605336 547.10546875 583 393 583 c 3
EndSplineSet
EndChar

StartChar: P
Encoding: 48 80 14
Width: 565
VWidth: 0
Flags: HMW
LayerCount: 2
Fore
SplineSet
321 379 m 5
 321 259 l 5
 143 259 l 1
 143 379 l 1
 321 379 l 5
334 688 m 5
 324 567 l 5
 143 567 l 1
 143 688 l 1
 334 688 l 5
61 0 m 1
 61 688 l 1
 195 688 l 1
 195 0 l 1
 61 0 l 1
334 688 m 5
 478.120117188 688 552 596.249023438 552 480 c 3
 552 352.537109375 473.68359375 259 321 259 c 5
 321 379 l 5
 387.158203125 379 416 421.399414062 416 475 c 3
 416 525.973632812 388.069335938 567 324 567 c 5
 334 688 l 5
EndSplineSet
EndChar

StartChar: Q
Encoding: 49 81 15
Width: 786
VWidth: 0
Flags: HMW
LayerCount: 2
Fore
SplineSet
642 -71 m 1
 359 244 l 1
 450 321 l 1
 733 6 l 1
 642 -71 l 1
EndSplineSet
Refer: 13 79 N 1 0 0 1 3 0 2
EndChar

StartChar: R
Encoding: 50 82 16
Width: 586
VWidth: 0
Flags: HMW
AnchorPoint: "Bottom" 300 -44 basechar 0
AnchorPoint: "Top" 286 744 basechar 0
LayerCount: 2
Fore
SplineSet
368 382 m 1
 368 268 l 1
 143 268 l 1
 143 382 l 1
 368 382 l 1
337 688 m 1
 326 567 l 1
 143 567 l 1
 143 688 l 1
 337 688 l 1
61 0 m 1
 61 688 l 1
 195 688 l 1
 195 0 l 1
 61 0 l 1
337 688 m 1
 478.379882812 688 552 599.302734375 552 483 c 3
 552 360.708007812 479.212890625 268 312 268 c 1
 323 382 l 1
 387.765625 382 416 422.958007812 416 476 c 3
 416 526.418945312 388.676757812 567 326 567 c 1
 337 688 l 1
422 0 m 1
 244 316 l 1
 393 316 l 1
 575 0 l 1
 422 0 l 1
EndSplineSet
EndChar

StartChar: U
Encoding: 53 85 17
Width: 648
VWidth: 0
Flags: HMW
AnchorPoint: "Ogonek" 357 1 basechar 0
AnchorPoint: "Top" 323 744 basechar 0
LayerCount: 2
Fore
SplineSet
193 258 m 2
 193 155.569335938 236.490234375 107 324 107 c 3
 411.509765625 107 455 155.569335938 455 258 c 2
 455 688 l 1
 589 688 l 1
 589 241 l 6
 589 81.3017578125 497.377929688 -16 324 -16 c 3
 150.622070312 -16 59 81.3017578125 59 241 c 6
 59 688 l 1
 193 688 l 1
 193 258 l 2
EndSplineSet
EndChar

StartChar: V
Encoding: 54 86 18
Width: 649
VWidth: 0
Flags: HMW
LayerCount: 2
Fore
SplineSet
282 0 m 1
 494 688 l 5
 640 688 l 5
 409 0 l 1
 282 0 l 1
236 0 m 1
 9 688 l 1
 160 688 l 1
 368 0 l 1
 236 0 l 1
EndSplineSet
EndChar

StartChar: Z
Encoding: 58 90 19
Width: 567
VWidth: 0
Flags: HMW
AnchorPoint: "Top" 304 744 basechar 0
LayerCount: 2
Fore
SplineSet
22 15 m 1
 104 121 l 1
 566 121 l 5
 532 0 l 5
 22 0 l 1
 22 15 l 1
549 673 m 1
 466 567 l 1
 24 567 l 1
 58 688 l 1
 549 688 l 1
 549 673 l 1
22 15 m 1
 391 662 l 1
 549 673 l 1
 180 28 l 1
 22 15 l 1
EndSplineSet
EndChar

StartChar: W
Encoding: 55 87 21
Width: 935
VWidth: 0
Flags: HMW
LayerCount: 2
Fore
SplineSet
632 0 m 1
 773 688 l 1
 912 688 l 1
 755 0 l 1
 632 0 l 1
600 0 m 1
 412 688 l 1
 538 688 l 1
 721 0 l 1
 600 0 l 1
216 0 m 5
 401 688 l 1
 521 688 l 1
 330 0 l 5
 216 0 l 5
178 0 m 5
 23 688 l 1
 166 688 l 1
 305 0 l 5
 178 0 l 5
EndSplineSet
EndChar

StartChar: Y
Encoding: 57 89 22
Width: 577
VWidth: 0
Flags: HMW
AnchorPoint: "Top" 289 744 basechar 0
LayerCount: 2
Fore
SplineSet
222 0 m 1
 222 348 l 1
 356 348 l 1
 356 0 l 1
 222 0 l 1
231 271 m 1
 430 688 l 1
 579 688 l 1
 351 263 l 1
 231 271 l 1
225 261 m 1
 -2 688 l 1
 152 688 l 1
 350 274 l 1
 225 261 l 1
EndSplineSet
EndChar

StartChar: X
Encoding: 56 88 23
Width: 628
VWidth: 0
Flags: HMW
LayerCount: 2
Fore
SplineSet
153 0 m 1
 -4 0 l 1
 224.015625 355.854492188 l 5
 11 688 l 1
 170 688 l 1
 316.1953125 449.426757812 l 5
 463 688 l 1
 619 688 l 1
 404.020507812 357.194335938 l 5
 632 0 l 1
 474 0 l 1
 311.840820312 263.62109375 l 5
 153 0 l 1
EndSplineSet
EndChar

StartChar: S
Encoding: 51 83 24
Width: 506
VWidth: 0
Flags: HMW
AnchorPoint: "Bottom" 261 -44 basechar 0
AnchorPoint: "Cedilla" 270 0 basechar 0
AnchorPoint: "Top" 276 744 basechar 0
LayerCount: 2
Fore
SplineSet
466 653 m 1
 435 530 l 1
 383.271428571 566.186067708 328.007346939 576 291 576 c 3
 212 576 169 551.008789062 169 501 c 3
 169 464.497818889 192 446.872965288 237.518554688 427.67578125 c 2
 349.231445312 380.561523438 l 2
 432.844799565 346.046547117 486 296.235351562 486 202 c 3
 486 73.3962264151 396.256916996 -11 231 -11 c 3
 165.840494792 -11 85.3620592128 9.39215686275 46 41 c 1
 46 175 l 1
 96.1429175719 136.396825397 172.984375 111 235 111 c 3
 306 111 349 136.320512821 349 190 c 3
 349 227 325.949552046 244.255358596 274.893554688 265.750976562 c 2
 156.779296875 315.479492188 l 2
 87 344.85800177 32 389.561523438 32 491 c 3
 32 612 132.842911877 698 295 698 c 3
 357.784062734 698 424.514940821 683.326260653 466 653 c 1
EndSplineSet
EndChar

StartChar: K
Encoding: 43 75 25
Width: 620
VWidth: 0
Flags: HMW
AnchorPoint: "Bottom" 316 -44 basechar 0
LayerCount: 2
Fore
SplineSet
168 357 m 1
 330 362 l 1
 629 0 l 1
 458 0 l 1
 168 357 l 1
169 348 m 1
 447 688 l 1
 610 688 l 1
 329 347 l 1
 169 348 l 1
61 0 m 1
 61 688 l 1
 195 688 l 1
 195 0 l 1
 61 0 l 1
EndSplineSet
EndChar

StartChar: J
Encoding: 42 74 26
Width: 473
VWidth: 0
Flags: HMW
LayerCount: 2
Fore
SplineSet
355 688 m 1
 355 566 l 1
 50 566 l 1
 82 688 l 1
 355 688 l 1
17 156 m 1
 60.7024332682 128.622222222 111 112 161 112 c 3
 239.216216216 112 285 148 285 228 c 2
 285 688 l 1
 419 688 l 1
 419 221 l 2
 419 67 321.680776014 -10 171 -10 c 3
 101.245283019 -10 45.9874213836 6.84194711538 17 30 c 1
 17 156 l 1
EndSplineSet
EndChar

StartChar: o
Encoding: 79 111 27
Width: 590
VWidth: 0
Flags: HMW
AnchorPoint: "Top" 295 578 basechar 0
LayerCount: 2
Fore
SplineSet
295 519 m 3
 464.567382812 519 565 401.563909774 565 252 c 3
 565 101.434456929 464.567382812 -16 295 -16 c 3
 125.432617188 -16 25 101.434456929 25 252 c 3
 25 401.563909774 125.432617188 519 295 519 c 3
295 407 m 3
 203.461914062 407 155 334.712935014 155 252 c 3
 155 169.303326613 203.461914062 96 295 96 c 3
 386.538085938 96 435 169.303326613 435 252 c 3
 435 334.712935014 386.538085938 407 295 407 c 3
EndSplineSet
EndChar

StartChar: i
Encoding: 73 105 28
Width: 239
VWidth: 0
Flags: HMW
AnchorPoint: "Ogonek" 95 0 basechar 0
LayerCount: 2
Fore
SplineSet
54 584 m 1
 54 718 l 1
 185 718 l 1
 185 584 l 1
 54 584 l 1
55 0 m 1
 55 503 l 1
 184 503 l 1
 184 0 l 1
 55 0 l 1
EndSplineSet
EndChar

StartChar: hyphen
Encoding: 13 45 29
Width: 376
VWidth: 0
Flags: HMW
LayerCount: 2
Fore
SplineSet
339 357 m 1
 339 242 l 1
 25 242 l 1
 55 357 l 5
 339 357 l 1
EndSplineSet
EndChar

StartChar: l
Encoding: 76 108 30
Width: 239
VWidth: 0
Flags: HMW
AnchorPoint: "Bottom" 120 -44 basechar 0
AnchorPoint: "Caron" 248 688 basechar 0
AnchorPoint: "Top" 120 759 basechar 0
LayerCount: 2
Fore
SplineSet
55 0 m 1
 55 718 l 1
 184 718 l 1
 184 0 l 1
 55 0 l 1
EndSplineSet
EndChar

StartChar: n
Encoding: 78 110 31
Width: 548
VWidth: 0
Flags: HMW
AnchorPoint: "Bottom" 281 -44 basechar 0
AnchorPoint: "Top" 275 574 basechar 0
LayerCount: 2
Fore
SplineSet
55 0 m 1
 55 503 l 1
 180 503 l 1
 181 360 l 1
 184 360 l 1
 184 0 l 1
 55 0 l 1
161 325 m 5
 161 437.905913444 227.551636464 512 331 512 c 3
 436.028489895 512 499 440.224609375 499 331 c 2
 499 0 l 1
 370 0 l 1
 370 298 l 2
 370 347.313085331 350.386603882 382.796457653 310 393.576991972 c 0
 301.574323036 395.826086744 292.2445002 397 282 397 c 3
 220.000161082 397 184 356.945519912 184 283 c 1
 161 325 l 5
EndSplineSet
EndChar

StartChar: h
Encoding: 72 104 32
Width: 548
VWidth: 0
Flags: HMW
LayerCount: 2
Fore
SplineSet
161 325 m 1
 161 437.905913444 227.551636464 512 331 512 c 7
 436.028489895 512 499 440.224609375 499 331 c 2
 499 0 l 1
 370 0 l 1
 370 298 l 2
 370 357.601054289 341.34922773 397 282 397 c 7
 220.000161082 397 184 356.945519912 184 283 c 1
 161 325 l 1
55 0 m 1
 55 718 l 1
 184 718 l 1
 184 0 l 1
 55 0 l 1
EndSplineSet
EndChar

StartChar: a
Encoding: 65 97 33
Width: 486
VWidth: 0
Flags: HMW
AnchorPoint: "Ogonek" 340 0 basechar 0
AnchorPoint: "Top" 241 574 basechar 0
LayerCount: 2
Fore
SplineSet
153 157 m 3
 153 122 176 94 227 94 c 3
 273 94 313 132 313 194 c 1
 335 156 l 1
 325 56 275 -8 185 -8 c 3
 86 -8 24 61 24 142 c 3
 24 280.163085938 145.991243797 298.161733832 247 307 c 2
 327 314 l 1
 327 230 l 1
 242 222 l 2
 181.873998786 216.341082239 153 197.625 153 157 c 3
313 324 m 1
 313 374.703125 264 402 194 402 c 3
 140.737304688 402 89.953125 387.604492188 41 361 c 1
 72 479 l 1
 120.993164062 503.666992188 173.9453125 512 223 512 c 3
 340 512 440 456.974609375 440 327 c 1
 313 324 l 1
440 327 m 1
 440 0 l 1
 319 0 l 1
 318 143 l 1
 313 143 l 1
 313 324 l 1
 440 327 l 1
EndSplineSet
Substitution2: "'ss01' Style Set 1 in Latin lookup 1-1" a.ss01
EndChar

StartChar: u
Encoding: 85 117 34
Width: 546
VWidth: 0
Flags: HMW
AnchorPoint: "Ogonek" 389 1 basechar 0
AnchorPoint: "Top" 273 574 basechar 0
LayerCount: 2
Fore
SplineSet
491 503 m 5
 491 0 l 5
 368 0 l 5
 367 143 l 5
 362 143 l 5
 362 503 l 5
 491 503 l 5
382 153 m 5
 382 71.0365853659 324.41422938 -9 219 -9 c 7
 111.577020554 -9 49 62.9775390625 49 172 c 6
 49 503 l 5
 178 503 l 5
 178 203 l 6
 178 144.602060953 206.325976563 106 265 106 c 7
 326.366858553 106 362 143.485258152 362 222 c 5
 382 153 l 5
EndSplineSet
EndChar

StartChar: b
Encoding: 66 98 35
Width: 608
VWidth: 0
Flags: HMW
LayerCount: 2
Fore
SplineSet
351 -11 m 3
 341.729914879 -11 332.7235811 -10.4510570061 324.000006263 -9.38690314764 c 0
 226.247912523 2.53748217172 164 79.1535083572 164 173 c 1
 164 329 l 1
 164 431.304395989 237.163671875 514 353 514 c 3
 493.671875 514 583 399.738166578 583 251 c 3
 583 103.255317253 493.673828125 -11 351 -11 c 3
318 100 m 3
 406.26953125 100 453 167.446512459 453 251 c 3
 453 334.550071022 406.26953125 403 318 403 c 3
 230.38431713 403 184 334.550071022 184 251 c 3
 184 167.446512459 230.38431713 100 318 100 c 3
184 143 m 1
 181 143 l 1
 180 0 l 1
 55 0 l 1
 55 718 l 1
 184 718 l 1
 184 302 l 1
 184 302 l 1
 184 202 l 1
 184 202 l 1
 184 143 l 1
EndSplineSet
EndChar

StartChar: d
Encoding: 68 100 36
Width: 608
VWidth: 0
Flags: HMW
AnchorPoint: "Caron" 617 688 basechar 0
LayerCount: 2
Fore
SplineSet
257 514 m 7
 370.1461046 514 444 432.221523437 444 330 c 5
 444 174 l 5
 444 71.6956040112 370.836328125 -11 255 -11 c 7
 114.328125 -11 25 103.261833422 25 252 c 7
 25 399.744682747 114.326171875 514 257 514 c 7
290 403 m 7
 201.73046875 403 155 335.007014654 155 252 c 7
 155 168.992593344 201.73046875 100 290 100 c 7
 377.61568287 100 424 168.992593344 424 252 c 7
 424 335.007014654 377.61568287 403 290 403 c 7
424 143 m 5
 424 202 l 5
 424 202 l 5
 424 302 l 5
 424 302 l 5
 424 718 l 5
 553 718 l 5
 553 0 l 5
 428 0 l 5
 427 143 l 5
 424 143 l 5
EndSplineSet
EndChar

StartChar: p
Encoding: 80 112 37
Width: 608
VWidth: 0
Flags: HMW
LayerCount: 2
Fore
SplineSet
351 -11 m 3
 231.198242188 -11 153 81.8896826172 153 198 c 1
 153 304 l 1
 153 420.129314366 230.421875 514 353 514 c 3
 493.671875 514 583 399.738166578 583 251 c 3
 583 103.255317253 493.673828125 -11 351 -11 c 3
318 100 m 3
 406.26953125 100 453 167.992985346 453 251 c 3
 453 334.007406656 406.26953125 403 318 403 c 3
 230.38431713 403 184 334.007406656 184 251 c 7
 184 167.992985346 230.38431713 100 318 100 c 3
184 360 m 1
 184 301 l 1
 184 301 l 5
 184 201 l 5
 184 201 l 1
 184 -165 l 1
 55 -165 l 1
 55 503 l 1
 180 503 l 1
 181 360 l 1
 184 360 l 1
EndSplineSet
EndChar

StartChar: q
Encoding: 81 113 38
Width: 608
VWidth: 0
Flags: HMW
LayerCount: 2
Fore
SplineSet
257 514 m 3
 376.801757812 514 455 421.110317382 455 305 c 1
 455 199 l 1
 455 82.8706856343 377.578125 -11 255 -11 c 3
 114.328125 -11 25 103.261833422 25 252 c 3
 25 399.744682747 114.326171875 514 257 514 c 3
290 403 m 3
 201.73046875 403 155 335.553487541 155 252 c 3
 155 168.449928978 201.73046875 100 290 100 c 3
 377.61568287 100 424 168.449928978 424 252 c 7
 424 335.553487541 377.61568287 403 290 403 c 3
424 360 m 1
 427 360 l 1
 428 503 l 1
 553 503 l 1
 553 -165 l 1
 424 -165 l 1
 424 201 l 1
 424 201 l 5
 424 301 l 5
 424 301 l 1
 424 360 l 1
EndSplineSet
EndChar

StartChar: t
Encoding: 84 116 39
Width: 363
VWidth: 0
Flags: HMW
AnchorPoint: "Bottom" 208 -44 basechar 0
AnchorPoint: "Caron" 390 688 basechar 0
AnchorPoint: "Cedilla" 207 0 basechar 0
LayerCount: 2
Fore
SplineSet
339 399 m 1
 5 399 l 1
 5 427 l 1
 163 612 l 1
 163 503 l 1
 339 503 l 1
 339 399 l 1
73 157 m 2
 73 429 l 1
 163 612 l 1
 202 612 l 1
 202 185 l 2
 202 130 228.56 108 285 108 c 3
 302.366666667 108 325.481807145 112.666666667 343 122 c 1
 343 18 l 1
 323 2 281.770596591 -6 247 -6 c 3
 130.956054688 -6 73 56 73 157 c 2
EndSplineSet
EndChar

StartChar: e
Encoding: 69 101 40
Width: 535
VWidth: 0
Flags: HMW
AnchorPoint: "Ogonek" 364 0 basechar 0
AnchorPoint: "Top" 280 574 basechar 0
LayerCount: 2
Fore
SplineSet
95 296 m 1
 438 296 l 1
 438 206 l 1
 95 206 l 1
 95 296 l 1
482 24 m 1
 446.223602484 -1.33226762955e-15 375.664596273 -13 322 -13 c 3
 123.735998205 -13 25 99.4228515625 25 253 c 3
 25 393.928019206 117.440988266 516 280 516 c 3
 422.185748318 516 505 400.015799387 505 265 c 3
 505 246.666992188 503.820686435 221.73046875 501 206 c 1
 375 206 l 1
 378.599609375 225.677734375 381 247.322265625 381 267 c 3
 381 351 340.86156994 408 275 408 c 3
 198.404296875 408 154 348.408649918 154 256 c 3
 154 153.358398438 209.365505643 96 336 96 c 3
 392 96 448.8881572 112.999584961 482 137 c 1
 482 24 l 1
EndSplineSet
EndChar

StartChar: s
Encoding: 83 115 41
Width: 421
VWidth: 0
Flags: HMW
AnchorPoint: "Bottom" 226 -44 basechar 0
AnchorPoint: "Cedilla" 226 0 basechar 0
AnchorPoint: "Top" 225 574 basechar 0
LayerCount: 2
Fore
SplineSet
384 478 m 1
 356 369 l 1
 318.059322034 396 271.226297669 406 235 406 c 3
 183 406 158 390 158 363 c 3
 158 342.837424539 167.077049689 333.192330695 205 318 c 2
 284.985351562 285.95703125 l 2
 357.898715548 256.74717472 398 221.277158884 398 148 c 3
 398 47 319.497560976 -14 197 -14 c 3
 141.272394563 -14 73.821192053 -2.22044604925e-16 42 30 c 1
 42 146 l 1
 98 105.448275862 153 94 198 94 c 3
 247 94 272 109.665548573 272 139 c 3
 272 160.855925865 259.367395321 168.462300782 220.880859375 183.662109375 c 2
 139 216 l 2
 72.9787381752 242.074327506 31 279.052969826 31 356 c 3
 31 449.619140625 109.830188679 515 245 515 c 3
 297.136552527 515 351.446905474 502 384 478 c 1
EndSplineSet
EndChar

StartChar: c
Encoding: 67 99 42
Width: 464
VWidth: 0
Flags: HMW
AnchorPoint: "Top" 276 574 basechar 0
AnchorPoint: "Cedilla" 285 0 basechar 0
LayerCount: 2
Fore
SplineSet
415 369 m 1
 387.538123139 386.399797713 351.82687872 398 312 398 c 3
 239.518554688 398 156 360.797202797 156 258 c 7
 156 147.062537802 240.075195312 100 331 100 c 3
 368 100 411 112 440 131 c 1
 440 17 l 1
 416.549804688 3.18912760417 367.618164062 -12 312 -12 c 3
 190.240234375 -12 25 54.7615384615 25 251 c 7
 25 457.633962264 200 513 314 513 c 3
 375.961268029 513 418 499 445 480 c 1
 415 369 l 1
EndSplineSet
EndChar

StartChar: r
Encoding: 82 114 43
Width: 373
VWidth: 0
Flags: HMW
AnchorPoint: "Bottom" 125 -44 basechar 0
AnchorPoint: "Top" 213 574 basechar 0
LayerCount: 2
Fore
SplineSet
55 0 m 1
 55 503 l 1
 177 503 l 1
 178 360 l 1
 184 360 l 1
 184 0 l 1
 55 0 l 1
349 359 m 1
 332 369 309 375 287 375 c 3
 225.908203125 375 184 342.691805753 184 249 c 1
 164 339 l 1
 180 428 221.944335938 511 313 511 c 3
 336.142610143 511 359.213114754 502.72 373 488 c 1
 349 359 l 1
EndSplineSet
EndChar

StartChar: v
Encoding: 86 118 44
Width: 521
VWidth: 0
Flags: HMW
LayerCount: 2
Fore
SplineSet
341 0 m 5
 225 0 l 5
 378 503 l 1
 516 503 l 1
 341 0 l 5
180 0 m 5
 5 503 l 1
 149 503 l 1
 303 0 l 5
 180 0 l 5
EndSplineSet
EndChar

StartChar: m
Encoding: 77 109 45
Width: 819
VWidth: 0
Flags: HMW
LayerCount: 2
Fore
SplineSet
437 301 m 1
 437 427.793652344 508.024414062 511 612 511 c 3
 711.098632812 511 770 441.606445312 770 337 c 2
 770 0 l 1
 641 0 l 1
 641 306 l 2
 641 362.808843315 615.255859375 397 565 397 c 3
 508.326171875 397 477 361.976535373 477 288 c 1
 437 301 l 1
55 0 m 1
 55 503 l 1
 180 503 l 1
 181 360 l 1
 184 360 l 1
 184 0 l 1
 55 0 l 1
163 329 m 1
 163 442.082462754 227.479492188 511 319 511 c 3
 418.098632812 511 477 441.606445312 477 337 c 2
 477 0 l 1
 348 0 l 1
 348 306 l 2
 348 362.808843315 322.255859375 397 272 397 c 3
 215.326171875 397 184 361.976535373 184 288 c 1
 163 329 l 1
EndSplineSet
EndChar

StartChar: f
Encoding: 70 102 46
Width: 358
VWidth: 0
Flags: HMW
LayerCount: 2
Fore
SplineSet
26 503 m 1
 348 503 l 1
 348 399 l 1
 8 399 l 1
 26 503 l 1
91 542 m 2
 91 687 194.010989011 723 263 723 c 3
 293.153846154 723 322 717.509295946 338 708 c 1
 358 600 l 1
 342 606.03563668 322.178571429 610 297 610 c 3
 247 610 220 590 220 541 c 2
 220 0 l 1
 91 0 l 1
 91 542 l 2
EndSplineSet
EndChar

StartChar: g
Encoding: 71 103 47
Width: 601
VWidth: 0
Flags: HMW
AnchorPoint: "Top" 293 578 basechar 0
LayerCount: 2
Fore
SplineSet
417 359 m 1
 420 359 l 1
 421 503 l 1
 546 503 l 1
 546 73 l 6
 546 -84.130952381 437.442382812 -176 263 -176 c 3
 203 -176 120 -161 80 -126 c 1
 80 -9 l 1
 137 -50.7454545455 203 -65 260 -65 c 3
 348 -65 417 -23.6693548387 417 60 c 2
 417 214 l 1
 417 214 l 1
 417 316 l 1
 417 316 l 1
 417 359 l 1
257 17 m 3
 113.209960938 17 25 125.150390625 25 265 c 3
 25 405.8203125 113.209960938 514 257 514 c 3
 375.281377822 514 450 421.022578124 450 306 c 1
 450 225 l 1
 450 109.445234376 374.508722595 17 257 17 c 3
286 129 m 3
 371.65234375 129 417 189.747661953 417 265 c 3
 417 340.304821955 371.65234375 402 286 402 c 3
 199.693873355 402 154 340.304821955 154 265 c 3
 154 189.747661953 199.693873355 129 286 129 c 3
EndSplineSet
EndChar

StartChar: j
Encoding: 74 106 48
Width: 239
VWidth: 0
Flags: HMW
LayerCount: 2
Fore
SplineSet
54 584 m 5
 54 718 l 5
 185 718 l 1
 185 584 l 1
 54 584 l 5
55 12 m 2
 55 503 l 1
 184 503 l 1
 184 20 l 2
 184 -115 119.638671875 -170 20 -170 c 3
 -5.599609375 -170 -31 -163 -47 -152 c 1
 -47 -50 l 1
 -34.3251731179 -54.6669921875 -18.400390625 -57 -8 -57 c 3
 34 -57 55 -31 55 12 c 2
EndSplineSet
EndChar

StartChar: k
Encoding: 75 107 49
Width: 524
VWidth: 0
Flags: HMW
AnchorPoint: "Bottom" 277 -44 basechar 0
LayerCount: 2
Fore
SplineSet
168 261 m 1
 292 304 l 1
 528 0 l 1
 367 0 l 1
 168 261 l 1
163 261 m 1
 371 503 l 5
 526 503 l 5
 291 231 l 1
 163 261 l 1
55 0 m 1
 55 718 l 1
 184 718 l 1
 184 0 l 1
 55 0 l 1
EndSplineSet
EndChar

StartChar: w
Encoding: 87 119 50
Width: 762
VWidth: 0
Flags: HMW
LayerCount: 2
Fore
SplineSet
618 0 m 5
 513 0 l 1
 621 503 l 1
 751 503 l 1
 618 0 l 5
479 0 m 5
 332 503 l 1
 447 503 l 1
 588 0 l 1
 479 0 l 5
281 0 m 1
 179 0 l 1
 320 503 l 1
 430 503 l 1
 281 0 l 1
142 0 m 1
 11 503 l 1
 144 503 l 1
 254 0 l 1
 142 0 l 1
EndSplineSet
EndChar

StartChar: x
Encoding: 88 120 51
Width: 508
VWidth: 0
Flags: HMW
LayerCount: 2
Fore
SplineSet
140 0 m 1
 -4 0 l 1
 172.318359375 258.1875 l 1
 10 503 l 1
 160 503 l 1
 257 341 l 1
 358 503 l 1
 502 503 l 1
 338.3515625 259.881835938 l 1
 512 0 l 1
 362 0 l 1
 252 177 l 1
 140 0 l 1
EndSplineSet
EndChar

StartChar: y
Encoding: 89 121 52
Width: 506
VWidth: 0
Flags: HMW
AnchorPoint: "Top" 256 574 basechar 0
LayerCount: 2
Fore
SplineSet
327 7 m 2
 288.256641524 -103.440837954 236 -168 125 -168 c 3
 92 -168 56.393258427 -158.857142857 39 -144 c 1
 39 -38 l 1
 58 -48 85 -53 105 -53 c 3
 162.056818182 -53 186.201495314 -25.9384113193 192 19 c 2
 196 50 l 1
 227 50 l 1
 368 503 l 1
 501 503 l 1
 327 7 l 2
5 503 m 1
 147 503 l 1
 292 55 l 1
 207 -44 l 1
 5 503 l 1
EndSplineSet
EndChar

StartChar: z
Encoding: 90 122 53
Width: 450
VWidth: 0
Flags: HMW
AnchorPoint: "Top" 239 574 basechar 0
LayerCount: 2
Fore
SplineSet
15 13 m 1
 95 110 l 1
 452 110 l 1
 418 0 l 1
 15 0 l 1
 15 13 l 1
438 490 m 5
 357 393 l 5
 15 393 l 1
 49 503 l 1
 438 503 l 5
 438 490 l 5
15 13 m 1
 289 479 l 5
 438 490 l 5
 164 26 l 1
 15 13 l 1
EndSplineSet
EndChar

StartChar: period
Encoding: 14 46 54
Width: 235
VWidth: 0
Flags: HMW
LayerCount: 2
Fore
SplineSet
45 0 m 1
 45 152 l 1
 190 152 l 5
 190 0 l 5
 45 0 l 1
EndSplineSet
EndChar

StartChar: comma
Encoding: 12 44 55
Width: 241
VWidth: 0
Flags: HMW
LayerCount: 2
Fore
SplineSet
53 -66 m 3
 87.7529296875 -66 106 -49 106 -12 c 2
 106 15 l 1
 46 47 l 5
 46 152 l 1
 196 152 l 1
 196 -6 l 2
 196 -97 149.052734375 -148 78 -148 c 3
 62.34765625 -148 40 -144.5 24 -134 c 1
 24 -62 l 1
 32.7353515625 -64.666015625 46 -66 53 -66 c 3
EndSplineSet
EndChar

StartChar: two.tnum
Encoding: 18 -1 56
Width: 552
VWidth: 0
Flags: HMW
LayerCount: 2
Fore
SplineSet
42 0 m 1
 142 120 l 1
 530 120 l 1
 497 0 l 1
 42 0 l 1
49 517 m 1
 83 648 l 1
 121.626373626 674.541666667 183.265576709 697 268 697 c 3
 397.477539062 697 495 635.98828125 495 513 c 3
 495 437.190429688 467.028416422 377.967838323 368.55078125 290.958007812 c 2
 269 203 l 2
 227.365212666 166.213619184 203 140 193 83 c 1
 42 0 l 1
 42 29 l 2
 42 114 85.0000273842 195.201142189 197.064453125 298.57421875 c 2
 281 376 l 2
 348.870311139 438.606512488 360 459.631835938 360 500 c 3
 360 551.59765625 311.38347234 576 239 576 c 3
 162.644164419 576 107.328590973 553.384260506 49 517 c 1
EndSplineSet
EndChar

StartChar: one.tnum
Encoding: 17 -1 57
Width: 552
VWidth: 0
Flags: HMW
LayerCount: 2
Fore
SplineSet
394 694 m 1
 394 573 l 1
 75 507 l 1
 108 636 l 1
 394 694 l 1
260 0 m 1
 260 654 l 1
 394 694 l 1
 394 0 l 1
 260 0 l 1
EndSplineSet
EndChar

StartChar: three.tnum
Encoding: 19 -1 58
Width: 552
VWidth: 0
Flags: HMW
LayerCount: 2
Fore
SplineSet
511 205 m 3
 511 71.8483412322 408 -8 252 -8 c 3
 170 -8 97.1082474227 13 53 44 c 1
 53 173 l 1
 113.094059406 135 177 112 252 112 c 3
 320 112 372 141.538461538 372 208 c 3
 372 271.616161616 300 302 193 302 c 3
 181 302 157 301 157 301 c 1
 186 410 l 1
 328 374 l 1
 409 374 511 325.461988304 511 205 c 3
354 498 m 3
 354 553 301 579 238 579 c 3
 170.27173913 579 106.586956522 559 52 526 c 1
 86 654 l 1
 123.413407821 677.547619048 184.083798883 697 267 697 c 3
 395 697 492 636 492 524 c 3
 492 412 394.45398773 356 342 356 c 1
 186 410 l 1
 280 412 354 429 354 498 c 3
EndSplineSet
EndChar

StartChar: zero.tnum
Encoding: 16 -1 59
Width: 552
VWidth: 0
Flags: HMW
LayerCount: 2
Fore
SplineSet
275 700 m 3
 439.872070312 700 527 580.854492188 527 346 c 3
 527 108.91796875 439.872070312 -12 275 -12 c 3
 111.436523438 -12 25 108.91796875 25 346 c 3
 25 580.854492188 111.436523438 700 275 700 c 3
275 579 m 3
 198.930664062 579 159 510.575195312 159 346 c 3
 159 179.342773438 198.930664062 109 275 109 c 3
 352.380859375 109 393 179.342773438 393 346 c 3
 393 510.575195312 352.380859375 579 275 579 c 3
EndSplineSet
EndChar

StartChar: four.tnum
Encoding: 20 -1 60
Width: 552
VWidth: 0
Flags: HMW
LayerCount: 2
Fore
SplineSet
11 260 m 1
 78 262 l 1
 537 262 l 1
 537 154 l 1
 11 154 l 1
 11 260 l 1
328 0 m 1
 328 425 l 1
 462 462 l 1
 462 0 l 1
 328 0 l 1
11 260 m 1
 272 688 l 1
 420 688 l 1
 158 260 l 1
 11 260 l 1
EndSplineSet
EndChar

StartChar: five.tnum
Encoding: 21 -1 61
Width: 552
VWidth: 0
Flags: HMW
LayerCount: 2
Fore
SplineSet
62 301 m 1
 110 688 l 1
 230 688 l 1
 189 371 l 1
 62 301 l 1
109 565 m 1
 110 688 l 1
 493 688 l 1
 460 565 l 1
 109 565 l 1
516 227 m 3
 516 82.8408203125 408.916015625 -8 247 -8 c 3
 164.041992188 -8 92.4462890625 13.419921875 48 43 c 1
 48 172 l 1
 108.795898438 135 168.073242188 112 250 112 c 3
 320.461914062 112 381 143.82421875 381 218 c 3
 381 300.291015625 310 327 226 327 c 3
 173.020507812 327 106.376953125 316 62 301 c 1
 109 399 l 1
 152.995117188 423 211.768554688 440 280 440 c 3
 410.481445312 440 516 364.942382812 516 227 c 3
EndSplineSet
EndChar

StartChar: six.tnum
Encoding: 22 -1 62
Width: 552
VWidth: 0
Flags: HMW
LayerCount: 2
Fore
SplineSet
29 330 m 1
 29 96 138.783203125 -12 302 -12 c 3
 442.221679688 -12 540 84 540 226 c 3
 540 354.012695312 438.150390625 444 322 444 c 3
 219.059570312 444 149 388.811523438 149 309 c 1
 178 216 l 1
 178 277.142578125 226.849609375 323 293 323 c 3
 359.150390625 323 408 277.142578125 408 216 c 3
 408 153.859375 359.150390625 107 293 107 c 3
 226.849609375 107 178 153.859375 178 216 c 1
 156 339 l 1
 156 464.713867188 201.024414062 579 337 579 c 3
 395 579 444 557 472 533 c 1
 503 653 l 1
 469 678 411 700 343 700 c 3
 114.487304688 700 29 528 29 330 c 1
EndSplineSet
EndChar

StartChar: seven.tnum
Encoding: 23 -1 63
Width: 552
VWidth: 0
Flags: HMW
LayerCount: 2
Fore
SplineSet
539 688 m 1
 539 664 l 1
 459 565 l 1
 14 565 l 1
 47 688 l 1
 539 688 l 1
89 0 m 1
 112 147 311 512 416 664 c 5
 539 664 l 1
 446.609375 508 261 145 236 0 c 1
 89 0 l 1
EndSplineSet
EndChar

StartChar: eight.tnum
Encoding: 24 -1 64
Width: 552
VWidth: 0
Flags: HMW
LayerCount: 2
Fore
SplineSet
276 371 m 3
 442.7890625 371 529 303.491210938 529 186 c 3
 529 76.3115234375 434.764648438 -13 276 -13 c 7
 117.235351562 -13 23 76.3115234375 23 186 c 3
 23 303.491210938 109.2109375 371 276 371 c 3
276 299 m 3
 199.4765625 299 159 253.927734375 159 201 c 3
 159 147.348632812 199.4765625 101 276 101 c 3
 353.171875 101 393 147.8125 393 202 c 3
 393 254.387695312 353.171875 299 276 299 c 3
276 701 m 3
 424.056640625 701 509 609.932617188 509 509 c 3
 509 408.201171875 434.142578125 336 276 336 c 3
 117.857421875 336 43 408.201171875 43 509 c 3
 43 609.932617188 127.943359375 701 276 701 c 3
276 589 m 3
 213.23046875 589 177 546.6875 177 497 c 3
 177 448.177734375 213.23046875 406 276 406 c 3
 338.76953125 406 375 448.177734375 375 497 c 3
 375 546.6875 338.76953125 589 276 589 c 3
EndSplineSet
EndChar

StartChar: nine.tnum
Encoding: 25 -1 65
Width: 552
VWidth: 0
Flags: HMW
LayerCount: 2
Fore
SplineSet
528 353 m 1
 528 592 418.216796875 700 257 700 c 3
 114.778320312 700 17 601.209960938 17 460 c 3
 17 330.225585938 118.849609375 239 238 239 c 3
 337.940429688 239 408 295.82421875 408 378 c 1
 379 470 l 1
 379 407.713867188 330.150390625 361 264 361 c 3
 197.849609375 361 149 407.713867188 149 470 c 3
 149 533.280273438 197.849609375 581 264 581 c 3
 330.150390625 581 379 533.280273438 379 470 c 1
 402 350 l 1
 402 229.244140625 368.024414062 110 222 110 c 3
 159.419921875 110 102 132 59 164 c 1
 59 37 l 1
 92.9823127298 11.2646484375 156.26171875 -10 226 -10 c 3
 457.043945312 -10 528 166.030273438 528 353 c 1
EndSplineSet
EndChar

StartChar: quotesingle
Encoding: 7 39 67
Width: 218
VWidth: 0
Flags: HMW
LayerCount: 2
Fore
SplineSet
72 396 m 5
 45 595 l 1
 45 688 l 1
 173 688 l 1
 173 595 l 1
 146 396 l 5
 72 396 l 5
EndSplineSet
EndChar

StartChar: f_f
Encoding: 332 64256 70
Width: 686
VWidth: 0
Flags: HMW
LayerCount: 2
Fore
SplineSet
248 503 m 1
 380 503 l 1
 380 399 l 1
 248 399 l 1
 248 503 l 1
EndSplineSet
Refer: 46 102 N 1 0 0 1 328 0 2
Refer: 46 102 N 1 0 0 1 0 0 2
LCarets2: 1 0
Ligature2: "'liga' Standard Ligatures in Latin lookup 0-1" f f
EndChar

StartChar: parenleft
Encoding: 8 40 71
Width: 300
VWidth: 0
Flags: HMW
LayerCount: 2
Fore
SplineSet
151 300 m 3
 151 120.9453125 238.513671875 -55.44921875 326 -125 c 1
 193 -125 l 5
 116.847362683 -57.60546875 32 96.76953125 32 299 c 3
 32 500.814453125 115.716874761 650.700195312 193 718 c 1
 326 718 l 1
 236.813476562 646.51953125 151 479.469726562 151 300 c 3
EndSplineSet
EndChar

StartChar: dollar
Encoding: 4 36 73
Width: 508
VWidth: 0
Flags: HMW
LayerCount: 2
Fore
SplineSet
202 -114 m 1
 202 58 l 1
 324 58 l 1
 324 -114 l 1
 202 -114 l 1
202 630 m 1
 202 792 l 1
 324 792 l 1
 324 630 l 1
 202 630 l 1
EndSplineSet
Refer: 24 83 N 1 0 0 1 -2 0 2
EndChar

StartChar: bracketleft
Encoding: 59 91 76
Width: 337
VWidth: 0
Flags: HMW
LayerCount: 2
Fore
SplineSet
133 718 m 1
 334 718 l 1
 308 618 l 1
 133 618 l 1
 133 718 l 1
133 -25 m 5
 308 -25 l 5
 334 -125 l 1
 133 -125 l 1
 133 -25 l 5
177 -125 m 1
 61 -125 l 1
 61 718 l 1
 177 718 l 1
 177 -125 l 1
EndSplineSet
EndChar

StartChar: exclam
Encoding: 1 33 78
Width: 257
VWidth: 0
Flags: HMW
LayerCount: 2
Fore
SplineSet
82 226 m 1
 58 511 l 1
 58 688 l 1
 194 688 l 1
 194 511 l 1
 170 226 l 1
 82 226 l 1
EndSplineSet
Refer: 54 46 S 1 0 0 1 6 0 2
EndChar

StartChar: question
Encoding: 31 63 79
Width: 466
VWidth: 0
Flags: HMW
LayerCount: 2
Fore
SplineSet
159 236 m 1
 159 307.717773438 188.59765625 346.725585938 251 403 c 0
 279.482421875 428.0703125 308 455.919921875 308 501 c 3
 308 555 264 576 203 576 c 3
 126.111328125 576 73.166015625 555.137695312 16 521 c 1
 50 652 l 1
 88 677 141.756835938 697 225 697 c 3
 346 697 443 636 443 522 c 3
 443 450 405 399.76171875 353.21875 353.93359375 c 0
 300.780273438 307.5234375 272 276 269 226 c 1
 159 226 l 1
 159 226 159 231 159 236 c 1
EndSplineSet
Refer: 54 46 S 1 0 0 1 98 0 2
EndChar

StartChar: ampersand
Encoding: 6 38 80
Width: 604
VWidth: 0
Flags: HMW
LayerCount: 2
Fore
SplineSet
209 403 m 1
 226 319 l 1
 169.506493506 307 151 267 151 221 c 3
 151 155 205.185185185 100 284 100 c 3
 379 100 452 179 452 329 c 3
 452 350 451 376 446 398 c 1
 551 371 l 1
 559 351 560 333 560 314 c 3
 560 114 430 -10 268 -10 c 3
 127.149797571 -10 23 80 23 198 c 3
 23 213.446909737 24.2897169465 228.122698222 26.8076171875 242 c 0
 42.8718295254 330.538804792 108.929467281 386.574485543 209 403 c 1
464 0 m 1
 148 363 l 2
 109 408 85 457 85 510 c 3
 85 642 200 698 302 698 c 3
 361 698 416 685 454 657 c 1
 424 538 l 1
 393 562 350 582 301 582 c 3
 265 582 215 569 215 510 c 3
 215 484 229 461 271 410 c 2
 609 0 l 1
 464 0 l 1
EndSplineSet
EndChar

StartChar: asterisk
Encoding: 10 42 81
Width: 479
VWidth: 0
Flags: HMW
LayerCount: 2
Fore
SplineSet
187 688 m 5
 292 688 l 5
 278 460 l 5
 201 460 l 5
 187 688 l 5
149.703125 257.443359375 m 5
 66.6103515625 315.633789062 l 5
 210.409179688 491.037109375 l 5
 271.231445312 450.48046875 l 5
 149.703125 257.443359375 l 5
412.389648438 315.633789062 m 5
 329.296875 257.443359375 l 5
 207.768554688 450.48046875 l 5
 268.590820312 491.037109375 l 5
 412.389648438 315.633789062 l 5
423.05859375 587.788085938 m 5
 458.651367188 495.633789062 l 5
 243.979492188 422.6796875 l 5
 222.657226562 487.302734375 l 5
 423.05859375 587.788085938 l 5
20.3486328125 495.633789062 m 5
 55.94140625 587.788085938 l 5
 256.342773438 487.302734375 l 5
 235.020507812 422.6796875 l 5
 20.3486328125 495.633789062 l 5
EndSplineSet
EndChar

StartChar: slash
Encoding: 15 47 82
Width: 471
VWidth: 0
Flags: HMW
LayerCount: 2
Fore
SplineSet
6 -125 m 1
 345 718 l 1
 465 718 l 1
 126 -125 l 1
 6 -125 l 1
EndSplineSet
EndChar

StartChar: backslash
Encoding: 60 92 83
Width: 471
VWidth: 0
Flags: HMW
LayerCount: 2
Fore
SplineSet
465 -125 m 1
 345 -125 l 1
 6 718 l 1
 126 718 l 5
 465 -125 l 1
EndSplineSet
EndChar

StartChar: underscore
Encoding: 63 95 84
Width: 522
VWidth: 0
Flags: HMW
LayerCount: 2
Fore
SplineSet
517 0 m 5
 517 -112 l 5
 -3 -112 l 1
 26 0 l 1
 517 0 l 5
EndSplineSet
EndChar

StartChar: plus
Encoding: 11 43 85
Width: 497
VWidth: 0
Flags: HMW
LayerCount: 2
Fore
SplineSet
197 81 m 1
 197 534 l 1
 304 534 l 1
 304 81 l 1
 197 81 l 1
44 362 m 1
 470 362 l 1
 470 265 l 1
 19 265 l 1
 44 362 l 1
EndSplineSet
EndChar

StartChar: braceleft
Encoding: 91 123 86
Width: 331
VWidth: 0
Flags: HMW
LayerCount: 2
Fore
SplineSet
157 297 m 1
 26 297 l 1
 26 339 l 1
 83.78125 341.505859375 134 361.701171875 134 415 c 3
 134 432 127.937832397 450.422153933 111.80859375 469.642578125 c 0
 93.046875 492 74 518.506835938 74 567 c 3
 74 673.869140625 204.459960938 724 288 724 c 1
 303 630 l 1
 237.026367188 622.621299342 193 608.135742188 193 570 c 3
 193 550.893554688 201.657260639 538.478540166 217.889648438 518 c 0
 235.5703125 495.694335938 257 464 257 425 c 3
 257 357 211 316.248046875 157 297 c 1
157 297 m 1
 211 277.751953125 257 237 257 169 c 3
 257 129 236.078549982 98.7424684217 217.889648438 76 c 0
 201.567382812 55.5914772727 193 42.1064453125 193 24 c 3
 193 -14.1357421875 237.026367188 -28.6212993421 303 -36 c 1
 288 -130 l 1
 204.459960938 -130 74 -79.869140625 74 27 c 3
 74 75.4931640625 93.3612480906 101.739323088 111.80859375 124.357421875 c 0
 127.829101562 144 134 162 134 179 c 3
 134 232.298828125 83.78125 252.494140625 26 255 c 1
 26 297 l 1
 157 297 l 1
EndSplineSet
EndChar

StartChar: bar
Encoding: 92 124 87
Width: 237
VWidth: 0
Flags: HMW
LayerCount: 2
Fore
SplineSet
61 -125 m 1
 61 718 l 1
 176 718 l 1
 176 -125 l 1
 61 -125 l 1
EndSplineSet
EndChar

StartChar: numbersign
Encoding: 3 35 89
Width: 695
VWidth: 0
Flags: HMW
LayerCount: 2
Fore
SplineSet
614 287 m 1
 614 187 l 1
 16 187 l 1
 42 287 l 1
 614 287 l 1
674 516 m 1
 674 416 l 1
 76 416 l 1
 102 516 l 1
 674 516 l 1
324 0 m 1
 504 688 l 1
 619 688 l 1
 439 0 l 1
 324 0 l 1
85 0 m 5
 265 688 l 5
 380 688 l 1
 200 0 l 1
 85 0 l 5
EndSplineSet
EndChar

StartChar: equal
Encoding: 29 61 91
Width: 510
VWidth: 0
Flags: HMW
LayerCount: 2
Fore
SplineSet
60 259 m 5
 468 259 l 5
 468 157 l 1
 34 157 l 1
 60 259 l 5
60 455 m 1
 468 455 l 1
 468 353 l 1
 34 353 l 1
 60 455 l 1
EndSplineSet
EndChar

StartChar: at
Encoding: 32 64 92
Width: 997
VWidth: 0
Flags: HMW
LayerCount: 2
Fore
SplineSet
484 144 m 3
 556 144 594 202.346679688 594 274 c 3
 594 345.640625 556 405 484 405 c 3
 412 405 374 345.640625 374 274 c 3
 374 202.346679688 412 144 484 144 c 3
459 37 m 3
 327 37 244 140.6875 244 274 c 3
 244 407.7421875 327 511 459 511 c 3
 554.5546875 511 613 437.477111816 613 346 c 1
 628 219 l 1
 628 118.098632812 562.84375 37 459 37 c 3
758 38 m 3
 645.354492188 38 603 118.942382813 603 191 c 1
 593 191 l 1
 593 248 l 1
 594 248 l 1
 594 302 l 1
 593 302 l 1
 593 358 l 1
 596 358 l 1
 597 501 l 1
 721 501 l 1
 721 309 l 0
 721 197 l 2
 721 157 731.208007812 133 770 133 c 3
 829.056237793 133 851 227.41015625 851 309 c 3
 851 478.597525248 716.436075499 638 499 638 c 3
 273.821930804 638 148 457.819393221 148 282 c 3
 148 84.962045885 283.435561977 -85 545 -85 c 3
 615.369369369 -85 703.090090091 -66.3266950335 759 -28 c 1
 759 -130 l 1
 704.914529915 -164 614.128205128 -181 533 -181 c 3
 215.667978818 -181 40 30.2431640625 40 276 c 3
 40 516.948242188 207.5234375 735 508 735 c 3
 787.782226562 735 957 532.947265625 957 309 c 0
 957 144.560546875 879.327148438 38 758 38 c 3
EndSplineSet
EndChar

StartChar: AE
Encoding: 133 198 99
Width: 905
VWidth: 0
Flags: HMW
LayerCount: 2
Fore
SplineSet
493 413.916992188 m 1
 815 413.916992188 l 5
 783 293 l 5
 491 292.916992188 l 1
 493 413.916992188 l 1
493 122 m 1
 865 122 l 1
 898 0 l 1
 493 0 l 1
 493 122 l 1
493 688 m 1
 885 688 l 5
 853 566 l 5
 493 566 l 1
 493 688 l 1
428 0 m 1
 428 688 l 1
 562 688 l 1
 562 0 l 1
 428 0 l 1
-4 0 m 1
 345 688 l 1
 480 688 l 1
 137 0 l 1
 -4 0 l 1
163 268 m 1
 465 268 l 1
 465 154 l 1
 163 154 l 1
 163 268 l 1
EndSplineSet
EndChar

StartChar: Oslash
Encoding: 151 216 115
Width: 786
VWidth: 0
Flags: HMW
LayerCount: 2
Back
Refer: 13 79 N 1 0 0 1 -2 0 2
Fore
SplineSet
40 18 m 5
 184.409179688 182 l 5
 176.409179688 181 l 5
 523.225585938 576 l 5
 531.225585938 577 l 5
 670 734 l 5
 747 670 l 5
 614.37109375 520 l 5
 622.37109375 521 l 5
 260.62890625 107 l 5
 252.62890625 106 l 5
 117 -46 l 5
 40 18 l 5
EndSplineSet
Refer: 13 79 S 1 0 0 1 0 0 2
EndChar

StartChar: OE
Encoding: 243 338 116
Width: 1117
VWidth: 0
Flags: HMW
LayerCount: 2
Fore
SplineSet
389 705 m 3
 613.834960938 705 730 538.086914062 730 346 c 3
 730 151.690429688 613.834960938 -17 389 -17 c 3
 154.944335938 -17 21 151.690429688 21 346 c 3
 21 538.086914062 154.944335938 705 389 705 c 3
395 584 m 3
 238.845703125 584 157 468.033203125 157 344 c 3
 157 219.966796875 238.926757812 104 395 104 c 3
 549.073242188 104 633 219.966796875 633 344 c 3
 633 468.033203125 548.985351562 584 395 584 c 3
694 413.916992188 m 1
 1027 413.916992188 l 5
 995 293 l 5
 692 292.916992188 l 1
 694 413.916992188 l 1
694 122 m 1
 1077 122 l 1
 1110 0 l 1
 694 0 l 1
 694 122 l 1
694 688 m 1
 1097 688 l 5
 1065 566 l 5
 694 566 l 1
 694 688 l 1
633 0 m 1
 633 688 l 1
 764 688 l 1
 764 0 l 1
 633 0 l 1
EndSplineSet
EndChar

StartChar: ae
Encoding: 165 230 129
Width: 819
VWidth: 0
Flags: HMW
LayerCount: 2
Fore
SplineSet
387 296 m 1
 726 296 l 1
 726 206 l 1
 387 206 l 1
 387 296 l 1
771 23 m 1
 733.221679688 1.5947265625 665.481445312 -13 601 -13 c 3
 425 -13 319 92 319 252 c 3
 319 384 409.022460938 517 568 517 c 3
 710.91796875 517 793 404.454101562 793 269 c 3
 793 248 791.75 226 788 206 c 1
 663 206 l 1
 666.599609375 226 669 248 669 268 c 3
 669 353.208984375 635.625976562 409 565 409 c 3
 484.827148438 409 443 351.930664062 443 249 c 3
 443 153.375 500.115234375 96 626 96 c 3
 678.463867188 96 734.580078125 112.546875 771 137 c 1
 771 23 l 1
319 317 m 1
 319 372.951171875 259 403 201 403 c 3
 140.594726562 403 84.740234375 384.121648616 44 360 c 5
 74 476 l 5
 116.09375 499.225929054 166.400390625 512 228 512 c 3
 359.169921875 512 429 428.891601562 429 307 c 1
 319 317 l 1
429 307 m 1
 429 143 l 1
 319 143 l 1
 319 317 l 1
 429 307 l 1
155 157 m 3
 155 121.271484375 176 95 226 95 c 3
 281 95 319 130 319 195 c 1
 390 134 l 1
 384 44 309.662109375 -8 204 -8 c 3
 84 -8 26 57.439453125 26 141 c 3
 26 280.842773438 150.971679688 298.26953125 252 307 c 2
 333 314 l 1
 333 229 l 1
 238 220 l 2
 186.979492188 215.166015625 155 197.950195312 155 157 c 3
EndSplineSet
EndChar

StartChar: dotlessi
Encoding: 222 305 135
Width: 239
VWidth: 0
Flags: HMW
AnchorPoint: "Top" 120 574 basechar 0
LayerCount: 2
Fore
SplineSet
55 0 m 1
 55 503 l 1
 184 503 l 1
 184 0 l 1
 55 0 l 1
EndSplineSet
EndChar

StartChar: oslash
Encoding: 183 248 146
Width: 592
VWidth: 0
Flags: HMW
LayerCount: 2
Fore
SplineSet
27 14 m 1
 151.455078125 155 l 1
 147.455078125 156 l 5
 369.305664062 408 l 5
 373.305664062 407 l 1
 496 546 l 1
 567 489 l 1
 454.870117188 362 l 1
 458.870117188 361 l 1
 215.010742188 84 l 1
 211.010742188 85 l 1
 98 -43 l 1
 27 14 l 1
EndSplineSet
Refer: 27 111 N 1 0 0 1 0 0 2
EndChar

StartChar: dieresis
Encoding: 103 168 154
Width: 436
VWidth: 0
GlyphClass: 2
Flags: HMW
AnchorPoint: "Top" 218 562 mark 0
LayerCount: 2
Fore
SplineSet
253 562 m 5
 253 688 l 5
 385 688 l 5
 385 562 l 5
 253 562 l 5
51 562 m 1
 51 688 l 1
 183 688 l 1
 183 562 l 1
 51 562 l 1
EndSplineSet
EndChar

StartChar: germandbls
Encoding: 158 223 155
Width: 572
VWidth: 0
Flags: HMW
LayerCount: 2
Fore
SplineSet
55 514 m 2
 55 687 181.309570312 725 272 725 c 3
 363.369140625 725 465 678.791992188 465 572 c 3
 465 509.701171875 441.54296875 487.034179688 406.181640625 456 c 0
 379.428710938 432.521484375 369 421.967773438 369 399 c 3
 369 379.425531915 381.6 364.2 404 353 c 2
 444 333 l 2
 534.525390625 290.000976562 563 243.170898438 563 167 c 3
 563 66.2255859375 493.201171875 -8 361 -8 c 3
 323 -8 272 2 240 23 c 1
 240 135 l 1
 276.840820312 111.000334822 325 99 364 99 c 3
 411 99 437 124.89453125 437 157 c 3
 437 184.458007812 424.852539062 205.689453125 378 228 c 2
 336 248 l 2
 273.778320312 277.629882812 243 312.45703125 243 375 c 3
 243 429 266.752929688 457.778320312 296 483.958984375 c 0
 324.040039062 509.05859375 339 523.336914062 339 552 c 3
 339 595 304.546875 612 266 612 c 3
 227 612 184 592 184 519 c 2
 184 0 l 1
 55 0 l 1
 55 514 l 2
EndSplineSet
EndChar

StartChar: grave
Encoding: 64 96 156
Width: 242
VWidth: 0
GlyphClass: 2
Flags: HMW
AnchorPoint: "Top" 162 522 mark 0
LayerCount: 2
Fore
SplineSet
128 522 m 5
 9 688 l 1
 152 688 l 5
 237 522 l 25
 128 522 l 5
EndSplineSet
EndChar

StartChar: acute
Encoding: 115 180 157
Width: 242
VWidth: 0
GlyphClass: 2
Flags: HMW
AnchorPoint: "Top" 82 522 mark 0
LayerCount: 2
Fore
SplineSet
114 522 m 5
 5 522 l 25
 90 688 l 1
 233 688 l 1
 114 522 l 5
EndSplineSet
EndChar

StartChar: ring
Encoding: 286 730 158
Width: 268
VWidth: 0
GlyphClass: 2
Flags: HMW
AnchorPoint: "Top" 134 519 mark 0
LayerCount: 2
Fore
SplineSet
86.5 598 m 3
 86.5 571.874592205 102.114630316 550.5 134 550.5 c 3
 165.885369684 550.5 181.5 571.874592205 181.5 598 c 3
 181.5 624.125407795 165.885369684 645.5 134 645.5 c 3
 102.114630316 645.5 86.5 624.125407795 86.5 598 c 3
22 598 m 3
 22 654.649605545 60.478515625 701 134 701 c 3
 207.521484375 701 246 654.649605545 246 598 c 3
 246 541.350394455 207.521484375 495 134 495 c 3
 60.478515625 495 22 541.350394455 22 598 c 3
EndSplineSet
EndChar

StartChar: cedilla
Encoding: 119 184 159
Width: 242
VWidth: 0
GlyphClass: 2
Flags: HMW
AnchorPoint: "Cedilla" 139 0 mark 0
LayerCount: 2
Fore
SplineSet
147 22 m 5
 181 -0.566037735849 209 -39 209 -82 c 7
 209 -134 166 -175 94 -175 c 7
 59.908045977 -175 29.1688311688 -165.181818182 13 -151 c 5
 13 -72 l 5
 28 -80.6755952381 47 -85 65 -85 c 7
 96.4285714285 -85 109 -70 109 -45 c 7
 109 -21 101.75 -2.98305084746 88 22 c 5
 147 22 l 5
EndSplineSet
EndChar

StartChar: circumflex
Encoding: 281 710 160
Width: 352
VWidth: 0
GlyphClass: 2
Flags: HMW
AnchorPoint: "Top" 176 522 mark 0
LayerCount: 2
Fore
SplineSet
238 522 m 1
 121 688 l 5
 243 688 l 1
 346 522 l 1
 238 522 l 1
114 522 m 1
 6 522 l 1
 109 688 l 1
 231 688 l 1
 114 522 l 1
EndSplineSet
EndChar

StartChar: tilde
Encoding: 288 732 162
Width: 391
VWidth: 0
GlyphClass: 2
Flags: HMW
AnchorPoint: "Top" 195 545 mark 0
LayerCount: 2
Fore
SplineSet
21 560 m 1
 21 642.282226562 61.6156455592 693 129 693 c 3
 167.912175847 693 192.949316594 675.953163964 217.26953125 657.21875 c 0
 236.20993231 642.628528691 246.498081554 636 262 636 c 3
 282.481445312 636 295.83995864 652.889008621 298 692 c 1
 370 679 l 1
 370 596.098632812 327.057409776 545 263 545 c 3
 226.018849927 545 198.909676845 562.413136895 172 582 c 0
 153.453345075 595.499634097 142.449094082 603 129 603 c 3
 109.041015625 603 95.7100201231 591.800377155 94 547 c 1
 21 560 l 1
EndSplineSet
EndChar

StartChar: oe
Encoding: 244 339 163
Width: 925
VWidth: 0
Flags: HMW
AnchorPoint: "Ogonek" 364 0 basechar 0
AnchorPoint: "Top" 280 574 basechar 0
LayerCount: 2
Fore
SplineSet
491 296 m 1
 832 296 l 1
 832 206 l 1
 491 206 l 1
 491 296 l 1
876 24 m 1
 838.556886228 2 770.754491018 -13 707 -13 c 3
 533.749090909 -13 430 92 430 252 c 3
 430 394 516.73046875 517 674 517 c 3
 815 517 899 404 899 269 c 3
 899 247.676923077 897.75 226.353846154 894 206 c 1
 769 206 l 1
 772 226.34375 774 247.65625 774 268 c 3
 774 353.208633094 741.396226415 409 669 409 c 3
 592 409 548 352.291015625 548 249 c 3
 548 153.754882812 603.962732919 96 731 96 c 3
 783.236024845 96 839.173913043 112.209302325 876 137 c 5
 876 24 l 1
290 518 m 3
 448.858398438 518 540 402 540 252 c 3
 540 101 448.858398438 -15 290 -15 c 3
 121.610351562 -15 25 101 25 252 c 3
 25 402 121.610351562 518 290 518 c 3
290 404 m 3
 201.731445312 404 155 334.092773438 155 252 c 3
 155 169.913085938 201.731445312 99 290 99 c 3
 378.268554688 99 425 169.913085938 425 252 c 3
 425 334.092773438 378.268554688 404 290 404 c 3
EndSplineSet
EndChar

StartChar: questiondown
Encoding: 126 191 165
Width: 437
VWidth: 0
Flags: HMW
LayerCount: 2
Fore
SplineSet
310 288 m 1
 310 208.0859375 275.135742188 172.631835938 219 121 c 0
 190.231445312 94.5400390625 161 67.5400390625 161 22 c 3
 161 -32 205 -53 266 -53 c 3
 337.131835938 -53 389 -34 439 -4 c 1
 439 -119 l 1
 403 -149 336.756835938 -174 244 -174 c 3
 123 -174 26 -113 26 1 c 3
 26 75.1982421875 64.0634765625 121.330078125 115.78125 169.06640625 c 0
 170 219.110351562 196.279296875 246 200 297 c 1
 310 297 l 1
 310 297 310 292.5 310 288 c 1
EndSplineSet
Refer: 54 46 N 1 0 0 1 141 371 2
EndChar

StartChar: cent
Encoding: 97 162 166
Width: 464
VWidth: 0
Flags: HMW
LayerCount: 2
Fore
SplineSet
216 -114 m 5
 216 58 l 5
 336 58 l 5
 336 -114 l 5
 216 -114 l 5
216 445 m 5
 216 608 l 5
 336 608 l 5
 336 445 l 5
 216 445 l 5
EndSplineSet
Refer: 42 99 N 1 0 0 1 0 0 2
EndChar

StartChar: yen
Encoding: 100 165 167
Width: 577
VWidth: 0
Flags: HMW
LayerCount: 2
Fore
SplineSet
222 0 m 1
 222 348 l 1
 356 348 l 1
 356 0 l 1
 222 0 l 1
231 261 m 1
 430 688 l 1
 579 688 l 1
 351 263 l 1
 231 261 l 1
225 261 m 1
 -2 688 l 1
 152 688 l 1
 350 264 l 1
 225 261 l 1
78 184 m 1
 504 184 l 1
 504 99 l 1
 62 99 l 1
 78 184 l 1
78 332 m 1
 504 332 l 1
 504 247 l 1
 62 247 l 1
 78 332 l 1
EndSplineSet
EndChar

StartChar: Euro
Encoding: 307 8364 168
Width: 623
VWidth: 0
Flags: HMW
LayerCount: 2
Fore
SplineSet
570 551 m 1
 544.270507812 560.239257812 504.872070312 572 451 572 c 3
 348.080078125 572 213 521.241210938 213 347 c 3
 213 176.276367188 335.958984375 111 458 111 c 3
 510.190429688 111 560.75 122.87890625 595 139 c 1
 595 15 l 1
 568.440429688 2.4814453125 515.767578125 -11 450 -11 c 3
 283.361328125 -11 77 72.3076171875 77 343 c 3
 77 629.174804688 309.061523438 697 469 697 c 3
 530.614257812 697 580.084960938 683.737304688 602 676 c 1
 570 551 l 1
25 312 m 1
 508 312 l 1
 486 227 l 1
 9 227 l 1
 25 312 l 1
25 460 m 1
 546 460 l 1
 524 375 l 1
 9 375 l 1
 25 460 l 1
EndSplineSet
EndChar

StartChar: sterling
Encoding: 98 163 169
Width: 536
VWidth: 0
Flags: HMW
LayerCount: 2
Fore
SplineSet
109 122 m 1
 500 122 l 1
 533 0 l 1
 109 0 l 1
 109 122 l 1
31 394 m 1
 433 395 l 1
 406 286 l 1
 11 285 l 1
 31 394 l 1
44 0 m 1
 44 112 l 1
 88.966796875 143 115 188 115 244 c 3
 115 290.330078125 105.178710938 319.533203125 95.0224609375 349 c 1
 84.693359375 380.545898438 74 414.540039062 74 473 c 3
 74 615 180.298828125 698 344 698 c 3
 406.153320312 698 462 684 499 663 c 1
 470 545 l 1
 427 565.705882353 388 577 339 577 c 3
 249.666992188 577 208 535 208 473 c 3
 208 433 218 398.29296875 228 366 c 1
 238 332.5 248 299 248 255 c 3
 248 193.713867188 226.830078125 143.180664062 182 112 c 1
 182 0 l 1
 44 0 l 1
EndSplineSet
EndChar

StartChar: twosuperior
Encoding: 113 178 175
Width: 376
VWidth: 0
Flags: HMW
LayerCount: 2
Fore
SplineSet
41 287 m 1
 98 381 l 1
 356 381 l 1
 332 287 l 1
 41 287 l 1
45 570 m 1
 70 667 l 1
 96.716796875 680.79296875 134.56640625 692 188 692 c 3
 271.587890625 692 334 656 334 579 c 3
 334 539.65625 320.092773438 499.885742188 261 452 c 2
 203 405 l 2
 180.28125 386.58984375 164 367 164 337 c 1
 41 287 l 1
 41 304 l 2
 41 352.375976562 64.0615234375 402.723632812 133 459 c 2
 182 499 l 2
 222 531.653320312 226 546 226 562 c 3
 226 588 204 600 163 600 c 3
 124.278320312 600 82.4150390625 590.909179688 45 570 c 1
EndSplineSet
EndChar

StartChar: threesuperior
Encoding: 114 179 176
Width: 376
VWidth: 0
Flags: HMW
LayerCount: 2
Fore
SplineSet
342 403 m 3
 342 331 275.877929688 283 176 283 c 3
 122.625 283 74.474609375 296.433333333 45 314 c 5
 45 405 l 1
 85.8984375 384.256835938 122.771484375 372 172 372 c 3
 209.637695312 372 233 382.286132812 233 408 c 3
 233 441.379882812 192.696289062 453 105 453 c 1
 124 532 l 1
 196 508 l 1
 260.412109375 508 342 479 342 403 c 3
223 572 m 3
 223 596.916992188 200.682617188 606 157 606 c 3
 118 606 81.150390625 594.352539062 46 573 c 1
 71 668 l 1
 97.490234375 680.922851562 132.811523438 692 188 692 c 3
 268.4375 692 331 657 331 592 c 3
 331 524 262.473632812 490 226 490 c 1
 124 532 l 1
 187.65625 532 223 542.272460938 223 572 c 3
EndSplineSet
EndChar

StartChar: onesuperior
Encoding: 120 185 177
Width: 376
VWidth: 0
Flags: HMW
LayerCount: 2
Fore
SplineSet
277 689 m 5
 277 594 l 5
 44 548 l 5
 70 649 l 5
 277 689 l 5
169 287 m 5
 169 666 l 5
 277 689 l 5
 277 287 l 5
 169 287 l 5
EndSplineSet
EndChar

StartChar: ordmasculine
Encoding: 121 186 178
Width: 475
VWidth: 0
Flags: HMW
LayerCount: 2
Fore
SplineSet
237 695 m 3
 371 695 448 605 448 488 c 3
 448 370 371 280 237 280 c 3
 103 280 27 370 27 488 c 3
 27 605 103 695 237 695 c 3
237 603 m 3
 169.908203125 603 134 550.291015625 134 488 c 3
 134 425.685546875 169.908203125 372 237 372 c 3
 304.126953125 372 341 425.685546875 341 488 c 3
 341 550.291015625 304.126953125 603 237 603 c 3
EndSplineSet
EndChar

StartChar: ordfeminine
Encoding: 105 170 179
Width: 402
VWidth: 0
Flags: HMW
LayerCount: 2
Fore
SplineSet
258 544 m 1
 258 581.35546875 222.4140625 602 172 602 c 3
 122.18359375 602 86.599609375 592 50 574 c 1
 75 668 l 1
 100.467773438 680 143.251953125 689 184 689 c 3
 301.326171875 689 361 637 361 544 c 1
 258 544 l 1
361 544 m 1
 361 287 l 1
 263 287 l 1
 262 399 l 1
 258 399 l 1
 258 544 l 1
 361 544 l 1
137 411 m 3
 137 383 152.396484375 361 188 361 c 3
 227.861328125 361 258 390 258 439 c 1
 271 404 l 1
 271 330 226.796875 281 160 281 c 3
 81.767578125 281 33 332 33 398 c 3
 33 507.838867188 128.086914062 521.946289062 208 529 c 2
 269 534 l 1
 269 467 l 1
 198 460 l 2
 159.26953125 455.916992188 137 442.645507812 137 411 c 3
EndSplineSet
EndChar

StartChar: copyright
Encoding: 104 169 180
Width: 780
VWidth: 0
Flags: HMW
LayerCount: 2
Fore
SplineSet
390 705 m 3
 626.94140625 705 759 536.1015625 759 346 c 3
 759 153.690429688 623.419921875 -17 390 -17 c 3
 156.580078125 -17 21 153.690429688 21 346 c 3
 21 536.086914062 156.580078125 705 390 705 c 3
390 620 m 3
 214.080383523 620 114 487.604696085 114 346 c 3
 114 202.327920521 214.42504529 68 391 68 c 3
 566.263297644 68 666 202.811319694 666 347 c 3
 666 488.087115119 565.919616477 620 390 620 c 3
499.16015625 423.48046875 m 1
 479.760258071 434.952724359 454.87262111 446.98046875 418.240234375 446.98046875 c 3
 369.098447137 446.98046875 304.599609375 424.686523438 304.599609375 348.16015625 c 3
 304.599609375 272.375976562 363.80085858 243.400390625 422.559570312 243.400390625 c 7
 457.501072645 243.400390625 491.349603993 255.202721796 514.280273438 271.219726562 c 1
 514.280273438 181.5 l 1
 496.688903266 168.663908509 461.801227421 154.83984375 418.240234375 154.83984375 c 7
 323.876441966 154.83984375 207.01953125 199.826171875 207.01953125 346 c 3
 207.01953125 500.53515625 338.126078993 537.16015625 425 537.16015625 c 3
 469.510277282 537.16015625 501.835344124 523.763491365 516.98046875 513.200195312 c 1
 499.16015625 423.48046875 l 1
EndSplineSet
EndChar

StartChar: registered
Encoding: 109 174 181
Width: 780
VWidth: 0
Flags: HMW
LayerCount: 2
Fore
SplineSet
390 705 m 3
 626.94140625 705 759 536.1015625 759 346 c 3
 759 153.690429688 623.419921875 -17 390 -17 c 3
 156.580078125 -17 21 153.690429688 21 346 c 3
 21 536.086914062 156.580078125 705 390 705 c 3
390 620 m 3
 214.080383523 620 114 487.604696085 114 346 c 3
 114 202.327920521 214.42504529 68 391 68 c 3
 566.263297644 68 666 202.811319694 666 347 c 7
 666 488.087115119 565.919616477 620 390 620 c 3
423.91015625 364.66015625 m 1
 423.91015625 295.16015625 l 1
 322.009765625 295.16015625 l 1
 322.009765625 364.66015625 l 1
 423.91015625 364.66015625 l 1
415.809570312 532.759765625 m 1
 399.0703125 459.48046875 l 1
 322.009765625 459.48046875 l 1
 322.009765625 532.759765625 l 1
 415.809570312 532.759765625 l 1
256.129882812 161.240234375 m 1
 256.129882812 532.759765625 l 1
 350.08984375 532.759765625 l 1
 350.08984375 161.240234375 l 1
 256.129882812 161.240234375 l 1
415.809570312 532.759765625 m 1
 502.508789062 532.759765625 548.870117188 482.571289062 548.870117188 414.5 c 3
 548.870117188 347.594726562 505.076171875 295.16015625 404.469726562 295.16015625 c 1
 399.0703125 364.66015625 l 1
 437.581054688 364.66015625 454.370117188 385.671875 454.370117188 412.879882812 c 3
 454.370117188 438.69921875 437.581054688 459.48046875 399.0703125 459.48046875 c 1
 415.809570312 532.759765625 l 1
446.809570312 161.240234375 m 1
 368.509765625 331.879882812 l 1
 469.490234375 331.879882812 l 1
 548.870117188 161.240234375 l 1
 446.809570312 161.240234375 l 1
EndSplineSet
EndChar

StartChar: dagger
Encoding: 299 8224 182
Width: 403
VWidth: 0
Flags: HMW
LayerCount: 2
Fore
SplineSet
149 -125 m 1
 149 688 l 1
 264 688 l 1
 264 -125 l 1
 149 -125 l 1
25 503 m 1
 396 503 l 1
 396 400 l 5
 5 400 l 5
 25 503 l 1
EndSplineSet
EndChar

StartChar: section
Encoding: 102 167 183
Width: 519
VWidth: 0
Flags: HMW
LayerCount: 2
Fore
SplineSet
259 357 m 1
 208 349.327148438 166 334.920898438 166 285 c 3
 166 244.202148438 194.085020424 224.206198445 255 199 c 2
 313 175 l 2
 409.914955781 134.897259677 466 96 466 10 c 3
 466 -103 377.94484788 -175 238 -175 c 3
 170.767972079 -175 104.347947474 -156.3875 63 -127 c 5
 63 0 l 5
 113.493305122 -37.2156489857 179.750108507 -59 242 -59 c 3
 297.760869565 -59 332 -40.904296875 332 -2 c 3
 332 29.9541015625 307.039106218 41.0928770644 248 66 c 2
 184 93 l 2
 103.061554404 127.145906736 36 161 36 268 c 3
 36 364.483398438 115 423 214 423 c 1
 259 357 l 1
456 655 m 1
 427 538 l 1
 381.936 569.974358974 338 581 296 581 c 3
 237.639648438 581 202 563.803523138 202 527 c 3
 202 495.2265625 221.182712366 485.441636263 273 464 c 2
 331 440 l 2
 434.133693884 397.323988737 498 356.887695312 498 259 c 3
 498 157 418 96 322 96 c 1
 285 167 l 1
 333 170.217773438 368 188.926757812 368 241 c 3
 368 279.140625 335 301.890625 266 331 c 2
 202 358 l 2
 128.078341969 389.185699482 68 427 68 517 c 3
 68 623 155.6640625 698 310 698 c 3
 361.1015625 698 423.66442953 682.268292683 456 655 c 1
EndSplineSet
EndChar

StartChar: multiply
Encoding: 150 215 184
Width: 503
VWidth: 0
Flags: HMW
LayerCount: 2
Fore
SplineSet
459 441 m 1
 118 100 l 1
 44 174 l 1
 385 515 l 1
 459 441 l 1
385 100 m 1
 44 441 l 1
 118 515 l 1
 459 174 l 1
 385 100 l 1
EndSplineSet
EndChar

StartChar: degree
Encoding: 111 176 185
Width: 326
VWidth: 0
Flags: HMW
LayerCount: 2
Fore
SplineSet
163 688 m 3
 250.2734375 688 300 628.127929688 300 553 c 3
 300 476.857421875 250.2734375 418 163 418 c 3
 75.7265625 418 26 476.857421875 26 553 c 3
 26 628.127929688 75.7265625 688 163 688 c 3
163 619 m 3
 121.666992188 619 101 587.14453125 101 553 c 3
 101 519.827148438 121.666992188 487 163 487 c 3
 204.333007812 487 225 519.827148438 225 553 c 3
 225 587.14453125 204.333007812 619 163 619 c 3
EndSplineSet
EndChar

StartChar: guilsinglleft
Encoding: 304 8249 186
Width: 344
VWidth: 0
Flags: HMW
LayerCount: 2
Fore
SplineSet
154 255 m 5
 323 52 l 1
 194 52 l 1
 21 253 l 1
 154 255 l 5
323 455 m 1
 154 255 l 5
 21 253 l 1
 195 455 l 1
 323 455 l 1
EndSplineSet
EndChar

StartChar: endash
Encoding: 291 8211 190
Width: 526
VWidth: 0
Flags: HMW
LayerCount: 2
Fore
SplineSet
489 363 m 5
 489 242 l 5
 25 242 l 5
 57 363 l 5
 489 363 l 5
EndSplineSet
EndChar

StartChar: emdash
Encoding: 292 8212 191
Width: 827
VWidth: 0
Flags: HMW
LayerCount: 2
Fore
SplineSet
790 363 m 5
 790 242 l 5
 25 242 l 5
 57 363 l 5
 790 363 l 5
EndSplineSet
EndChar

StartChar: bullet
Encoding: 301 8226 192
Width: 362
VWidth: 0
Flags: HMW
LayerCount: 2
Fore
SplineSet
181 441.75 m 7
 265.418945312 441.75 317 382.877929688 317 306.75 c 7
 317 230.119140625 265.418945312 171.25 181 171.25 c 7
 96.5810546875 171.25 45 230.119140625 45 306.75 c 7
 45 382.877929688 96.5810546875 441.75 181 441.75 c 7
EndSplineSet
EndChar

StartChar: currency
Encoding: 99 164 195
Width: 576
VWidth: 0
Flags: HMW
LayerCount: 2
Fore
SplineSet
367 490 m 1
 480 603 l 1
 552 530 l 1
 440 417 l 1
 367 490 l 1
203 180 m 1
 96 74 l 1
 24 147 l 1
 130 253 l 1
 203 180 l 1
432 267 m 1
 552 147 l 1
 480 74 l 1
 359 194 l 1
 432 267 l 1
141 412 m 1
 24 530 l 1
 96 603 l 1
 214 485 l 1
 141 412 l 1
288 558 m 3
 423 558 510 456 510 339 c 3
 510 221 423 119 288 119 c 3
 153 119 66 221 66 339 c 3
 66 456 153 558 288 558 c 3
288 459 m 3
 220 459 173 403 173 339 c 3
 173 275 220 218 288 218 c 3
 356 218 403 275 403 339 c 3
 403 403 356 459 288 459 c 3
EndSplineSet
EndChar

StartChar: brokenbar
Encoding: 101 166 196
Width: 237
VWidth: 0
Flags: HMW
LayerCount: 2
Fore
SplineSet
61 366 m 1
 61 718 l 1
 176 718 l 1
 176 366 l 1
 61 366 l 1
176 250 m 5
 176 -125 l 1
 61 -125 l 1
 61 250 l 5
 176 250 l 5
EndSplineSet
EndChar

StartChar: Thorn
Encoding: 157 222 199
Width: 568
VWidth: 0
Flags: HMW
LayerCount: 2
Fore
SplineSet
325 262 m 1
 325 141 l 1
 143 141 l 1
 143 262 l 1
 325 262 l 1
335 568 m 1
 325 447 l 1
 143 447 l 1
 143 568 l 1
 335 568 l 1
335 568 m 1
 478.458984375 568 552 476.690429688 552 361 c 3
 552 234.114257812 475.040039062 141 325 141 c 1
 325 262 l 1
 388.373046875 262 416 302.958007812 416 356 c 3
 416 406.419921875 388.373046875 447 325 447 c 1
 335 568 l 1
61 0 m 1
 61 688 l 1
 195 688 l 1
 195 0 l 1
 61 0 l 1
EndSplineSet
EndChar

StartChar: divide
Encoding: 182 247 200
Width: 489
VWidth: 0
Flags: HMW
LayerCount: 2
Fore
SplineSet
247 218.5 m 3
 289.609375 218.5 316 190.770507812 316 151.5 c 7
 316 111.810546875 289.609375 84 247 84 c 3
 204.390625 84 178 111.810546875 178 151.5 c 3
 178 190.770507812 204.390625 218.5 247 218.5 c 3
247 543 m 3
 289.609375 543 316 514.693359375 316 476 c 3
 316 436.889648438 289.609375 408.5 247 408.5 c 3
 205.96484375 408.5 178 434.315429688 178 476 c 3
 178 514.693359375 204.390625 543 247 543 c 3
44 362 m 1
 462 362 l 1
 462 265 l 1
 19 265 l 1
 44 362 l 1
EndSplineSet
EndChar

StartChar: thorn
Encoding: 189 254 201
Width: 608
VWidth: 0
Flags: HMW
LayerCount: 2
Fore
SplineSet
346 -12 m 3
 226.198242188 -12 153 76.8896484375 153 188 c 1
 153 314 l 1
 153 425.15234375 225.421875 515 347 515 c 3
 493.671875 515 583 400.303710938 583 251 c 3
 583 102.69140625 493.673828125 -12 346 -12 c 3
318 99 m 7
 406.26953125 99 453 166.893554688 453 251 c 3
 453 335.099609375 406.26953125 404 318 404 c 3
 229.73046875 404 183 335.099609375 183 251 c 3
 183 166.893554688 229.73046875 99 318 99 c 7
184 718 m 1
 184 301 l 1
 183 301 l 1
 183 201 l 1
 184 201 l 1
 184 -165 l 1
 55 -165 l 1
 55 718 l 1
 184 718 l 1
EndSplineSet
EndChar

StartChar: Dcroat
Encoding: 203 272 214
Width: 717
VWidth: 0
Flags: HMW
LayerCount: 2
Fore
SplineSet
352 299.916992188 m 1
 -4 299.916992188 l 1
 18 405.833984375 l 1
 352 405.916992188 l 1
 352 299.916992188 l 1
EndSplineSet
Refer: 0 68 S 1 0 0 1 23 0 2
EndChar

StartChar: dcroat
Encoding: 204 273 215
Width: 623
VWidth: 0
Flags: HMW
LayerCount: 2
Fore
SplineSet
299 660 m 5
 613 660 l 5
 613 568 l 5
 281 568 l 5
 299 660 l 5
EndSplineSet
Refer: 36 100 N 1 0 0 1 3 0 2
EndChar

StartChar: Lslash
Encoding: 231 321 241
Width: 521
VWidth: 0
Flags: HMW
LayerCount: 2
Fore
SplineSet
360 532 m 5
 360 420 l 1
 5 240 l 1
 5 352 l 1
 360 532 l 5
EndSplineSet
Refer: 11 76 N 1 0 0 1 11 0 2
EndChar

StartChar: lslash
Encoding: 232 322 242
Width: 263
VWidth: 0
Flags: HMW
LayerCount: 2
Fore
SplineSet
269 517 m 5
 269 405 l 5
 0 270 l 1
 0 382 l 1
 269 517 l 5
EndSplineSet
Refer: 30 108 N 1 0 0 1 10 -2 2
EndChar

StartChar: florin
Encoding: 276 402 280
Width: 361
VWidth: 0
Flags: HMW
LayerCount: 2
Fore
SplineSet
29 503 m 1
 351 503 l 1
 351 399 l 1
 11 399 l 1
 29 503 l 1
94 542 m 2
 94 687 203 723 276 723 c 3
 301 723 329 716 341 706 c 1
 361 599 l 1
 345.813476562 605.639648438 327 610 305 610 c 3
 255 610 223 591 223 544 c 2
 223 20 l 1
 94 17 l 1
 94 542 l 2
223 20 m 17
 223 -117 156 -170 60 -170 c 3
 33 -170 6 -165 -8 -158 c 1
 -8 -51 l 1
 5.3330078125 -55 18 -57 32 -57 c 3
 72 -57 94 -31 94 17 c 9
 223 20 l 17
EndSplineSet
EndChar

StartChar: uni02C9
Encoding: 283 713 285
Width: 371
VWidth: 0
GlyphClass: 2
Flags: HMW
AnchorPoint: "Top" 185 573 mark 0
LayerCount: 2
Fore
SplineSet
20 581 m 1
 45 673 l 5
 347 673 l 1
 347 581 l 1
 20 581 l 1
EndSplineSet
EndChar

StartChar: breve
Encoding: 284 728 286
Width: 346
VWidth: 0
GlyphClass: 2
Flags: HMW
AnchorPoint: "Top" 173 535 mark 0
LayerCount: 2
Fore
SplineSet
241 688 m 5
 329 688 l 1
 329 580.650390625 258.341426029 526 173 526 c 19
 87.6585739716 526 17 580.650390625 17 688 c 1
 105 688 l 5
 106.819625048 643.70248838 128.000279018 611 173 611 c 3
 217.999720982 611 239.180374952 643.70248838 241 688 c 5
EndSplineSet
EndChar

StartChar: dotaccent
Encoding: 285 729 287
Width: 239
VWidth: 0
GlyphClass: 2
Flags: HMW
AnchorPoint: "Top" 119 574 mark 0
LayerCount: 2
Fore
SplineSet
54 584 m 5
 54 718 l 5
 185 718 l 1
 185 584 l 1
 54 584 l 5
EndSplineSet
EndChar

StartChar: ogonek
Encoding: 287 731 288
Width: 242
VWidth: 0
GlyphClass: 2
Flags: HMW
AnchorPoint: "Ogonek" 103 0 mark 0
LayerCount: 2
Fore
SplineSet
95 22 m 1
 154 22 l 1
 140.25 -2.9833984375 133 -21 133 -45 c 3
 133 -70 145.571289062 -85 177 -85 c 3
 195 -85 214 -80.67578125 229 -72 c 1
 229 -151 l 1
 212.831054688 -165.181640625 182.091796875 -175 148 -175 c 3
 76 -175 33 -134 33 -82 c 3
 33 -39 61 -0.56640625 95 22 c 1
EndSplineSet
EndChar

StartChar: hungarumlaut
Encoding: 289 733 289
Width: 387
VWidth: 0
GlyphClass: 2
Flags: HMW
AnchorPoint: "Top" 157 522 mark 0
LayerCount: 2
Fore
SplineSet
93 522 m 1
 9 522 l 25
 87 688 l 1
 204 688 l 1
 93 522 l 1
267 522 m 1
 183 522 l 25
 261 688 l 1
 378 688 l 1
 267 522 l 1
EndSplineSet
EndChar

StartChar: pi
Encoding: 290 960 290
Width: 610
VWidth: 0
Flags: HMW
LayerCount: 2
Fore
SplineSet
602 503 m 1
 602 389 l 1
 3 389 l 1
 34 503 l 1
 602 503 l 1
384 0 m 1
 384 453 l 1
 513 453 l 1
 513 0 l 1
 384 0 l 1
105 0 m 1
 105 453 l 1
 234 453 l 1
 234 0 l 1
 105 0 l 1
EndSplineSet
EndChar

StartChar: daggerdbl
Encoding: 300 8225 291
Width: 403
VWidth: 0
Flags: HMW
LayerCount: 2
Fore
SplineSet
25 233 m 1
 396 233 l 1
 396 130 l 1
 5 130 l 1
 25 233 l 1
149 -125 m 1
 149 688 l 1
 264 688 l 1
 264 -125 l 1
 149 -125 l 1
25 503 m 1
 396 503 l 1
 396 400 l 1
 5 400 l 1
 25 503 l 1
EndSplineSet
EndChar

StartChar: fraction
Encoding: 306 8260 293
Width: 570
VWidth: 0
Flags: HMW
LayerCount: 2
Fore
SplineSet
2 0 m 5
 447 688 l 1
 568 688 l 1
 123 0 l 1
 2 0 l 5
EndSplineSet
EndChar

StartChar: uni20BA
Encoding: 308 8378 294
Width: 552
VWidth: 0
Flags: HMW
LayerCount: 2
Fore
SplineSet
29 319 m 1
 369 385 l 1
 369 300 l 1
 13 231 l 1
 29 319 l 1
29 474 m 5
 369 540 l 5
 369 455 l 5
 13 386 l 5
 29 474 l 5
100 0 m 1
 100 688 l 1
 234 688 l 1
 234 30 l 1
 170 0 l 1
 100 0 l 1
145 0 m 1
 145 121 l 1
 224 121 l 2
 307.433691756 121 412 119 430 224 c 1
 542 224 l 1
 527 19 342.03164557 0 187 0 c 2
 145 0 l 1
EndSplineSet
EndChar

StartChar: uni20BD
Encoding: 309 8381 295
Width: 597
VWidth: 0
Flags: HMW
LayerCount: 2
Fore
SplineSet
354 380 m 1
 353 273 l 1
 172 273 l 1
 172 380 l 1
 354 380 l 1
361 688 m 1
 354 567 l 1
 172 567 l 1
 172 688 l 1
 361 688 l 1
90 0 m 1
 90 688 l 1
 224 688 l 1
 224 0 l 1
 90 0 l 1
361 688 m 1
 506 688 581 597 581 481 c 3
 581 361.574162679 514 273 353 273 c 1
 354 380 l 1
 418 380 446 421.436170213 446 475 c 3
 446 526 418 567 354 567 c 1
 361 688 l 1
31 206 m 5
 461 207 l 5
 433 107 l 1
 11 106 l 1
 31 206 l 5
31 379 m 1
 322 380 l 1
 293 273 l 1
 11 272 l 1
 31 379 l 1
EndSplineSet
EndChar

StartChar: uni2113
Encoding: 310 8467 296
Width: 417
VWidth: 0
Flags: HMW
LayerCount: 2
Fore
SplineSet
79 541 m 1
 79 614.23046875 113 733 250 733 c 3
 347 733 398 664 398 579 c 3
 398 351.265625 152 269 0 269 c 1
 21 376 l 1
 136.137695312 376 288 443 288 564 c 3
 288 588.490234375 277.94140625 614 250 614 c 3
 223.64453125 614 208 591.645507812 208 551 c 1
 79 541 l 1
79 179 m 2
 79 541 l 1
 208 551 l 1
 208 190 l 2
 208 130.2890625 240 106 285 106 c 3
 318 106 347 116.913085938 370 130 c 1
 370 20 l 1
 351 5 311 -6 264 -6 c 3
 138 -6 79 63 79 179 c 2
EndSplineSet
EndChar

StartChar: trademark
Encoding: 311 8482 297
Width: 887
VWidth: 0
Flags: HMW
LayerCount: 2
Fore
SplineSet
343 688 m 1
 343 592 l 1
 -1 592 l 1
 26 688 l 1
 343 688 l 1
128 287 m 1
 128 659 l 1
 234 659 l 1
 234 287 l 1
 128 287 l 1
730 287 m 1
 730 688 l 1
 836 688 l 1
 836 287 l 1
 730 287 l 1
580 405 m 5
 580 436 l 5
 697 688 l 1
 779 688 l 1
 652 405 l 5
 580 405 l 5
578 405 m 5
 449 688 l 1
 534 688 l 1
 651 440 l 5
 651 405 l 5
 578 405 l 5
394 287 m 1
 394 688 l 1
 499 688 l 1
 499 287 l 1
 394 287 l 1
EndSplineSet
EndChar

StartChar: uni2126
Encoding: 312 8486 298
Width: 744
VWidth: 0
Flags: HMW
LayerCount: 2
Fore
SplineSet
535 0 m 1
 416 0 l 1
 416 180 l 1
 535 180 l 1
 535 0 l 1
705 0 m 1
 476 0 l 1
 476 114 l 5
 674 114 l 5
 705 0 l 1
209 0 m 1
 209 180 l 1
 328 180 l 1
 328 0 l 1
 209 0 l 1
39 0 m 1
 70 114 l 5
 268 114 l 5
 268 0 l 1
 39 0 l 1
372 705 m 3
 593.211914062 705 711 543.703125 711 393 c 3
 711 274.646484375 634.09375 131 456 121 c 1
 416 180 l 1
 538.092773438 223.447089205 575 304.306640625 575 389 c 3
 575 487.084960938 505.16015625 587 372 587 c 3
 238.83984375 587 169 487.084960938 169 389 c 3
 169 304.306640625 205.907226562 223.447089205 328 180 c 1
 288 121 l 1
 109.90625 131 33 274.646484375 33 393 c 3
 33 543.703125 150.788085938 705 372 705 c 3
EndSplineSet
EndChar

StartChar: estimated
Encoding: 313 8494 299
Width: 758
VWidth: 0
Flags: HMW
LayerCount: 2
Fore
SplineSet
680 303 m 1
 78 303 l 1
 78 387 l 1
 680 387 l 1
 680 303 l 1
543 346 m 1
 543 628 l 1
 717 346 l 1
 543 346 l 1
215 628 m 1
 215 60 l 1
 41 346 l 1
 215 628 l 1
719.702148438 173 m 1
 664.177734375 61.4609375 537.237304688 -17 390 -17 c 3
 172.580078125 -17 21 151.690429688 21 346 c 3
 21 528.086914062 159.24712397 705 381 705 c 3
 590.356662326 705 737 528.086914062 737 346 c 3
 737 331.50390625 736.262695312 317.151367188 734.798828125 303 c 1
 616.962890625 303 l 1
 618.979492188 317.141601562 620 331.517578125 620 346 c 3
 620 500.809548611 521.346262814 614 381 614 c 3
 226.11483159 614 138 484.503501157 138 346 c 3
 138 205.429117244 229.724148942 74 391 74 c 3
 482.800610059 74 556 115 596.658203125 173 c 1
 719.702148438 173 l 1
EndSplineSet
EndChar

StartChar: partialdiff
Encoding: 314 8706 300
Width: 552
VWidth: 0
Flags: HMW
LayerCount: 2
Fore
SplineSet
523 330 m 1
 523 96 413.216796875 -12 250 -12 c 3
 109.778320312 -12 12 87 12 217 c 3
 12 354.012695312 111.845703125 444 237 444 c 3
 330 444 407 382.817382812 407 297 c 1
 374 216 l 1
 374 277.142578125 325.150390625 323 259 323 c 3
 192.849609375 323 144 277.142578125 144 216 c 3
 144 153.859375 192.849609375 107 259 107 c 3
 325.150390625 107 374 153.859375 374 216 c 1
 396 339 l 1
 396 464.713867188 355 579 190 579 c 3
 139.364285714 579 92.7 566.30952381 51 538 c 5
 80 663 l 1
 111.163085938 686.125 160 700 214 700 c 3
 434 700 523 528 523 330 c 1
EndSplineSet
EndChar

StartChar: uni2206
Encoding: 315 8710 301
Width: 625
VWidth: 0
Flags: HMW
LayerCount: 2
Fore
SplineSet
489 0 m 1
 260 688 l 1
 385 688 l 1
 619 24 l 1
 619 0 l 1
 489 0 l 1
6 0 m 1
 6 24 l 1
 245 688 l 1
 364 688 l 5
 132 0 l 1
 6 0 l 1
90 122 m 1
 536 122 l 1
 536 0 l 1
 90 0 l 1
 90 122 l 1
EndSplineSet
EndChar

StartChar: product
Encoding: 316 8719 302
Width: 676
VWidth: 0
Flags: HMW
LayerCount: 2
Fore
SplineSet
481 -125 m 5
 481 688 l 5
 615 688 l 5
 615 -125 l 5
 481 -125 l 5
61 -125 m 5
 61 688 l 5
 195 688 l 5
 195 -125 l 5
 61 -125 l 5
126 566 m 5
 126 688 l 5
 550 688 l 5
 550 566 l 5
 126 566 l 5
EndSplineSet
EndChar

StartChar: summation
Encoding: 317 8721 303
Width: 584
VWidth: 0
Flags: HMW
LayerCount: 2
Fore
SplineSet
285 281 m 1
 19 664 l 1
 19 688 l 1
 160 688 l 1
 445 294 l 1
 285 281 l 1
73 -125 m 1
 133 -3 l 1
 549 -3 l 1
 581 -125 l 1
 73 -125 l 1
8 -125 m 1
 8 -101 l 1
 282 288 l 1
 445 294 l 1
 139 -125 l 5
 8 -125 l 1
144 566 m 1
 84 688 l 1
 565 688 l 1
 533 566 l 1
 144 566 l 1
EndSplineSet
EndChar

StartChar: minus
Encoding: 318 8722 304
Width: 469
VWidth: 0
Flags: HMW
LayerCount: 2
Fore
SplineSet
47 367 m 1
 442 367 l 5
 442 259 l 5
 19 259 l 1
 47 367 l 1
EndSplineSet
EndChar

StartChar: uni2219
Encoding: 320 8729 306
Width: 262
VWidth: 0
Flags: HMW
LayerCount: 2
Fore
SplineSet
131 404.75 m 3
 185.783203125 404.75 221 367.571289062 221 316.75 c 3
 221 265.471679688 185.783203125 228.25 131 228.25 c 3
 76.216796875 228.25 41 265.471679688 41 316.75 c 3
 41 367.571289062 76.216796875 404.75 131 404.75 c 3
EndSplineSet
EndChar

StartChar: radical
Encoding: 321 8730 307
Width: 567
VWidth: 0
Flags: HMW
LayerCount: 2
Fore
SplineSet
45 413.916992188 m 1
 146 413.916992188 l 1
 146 293 l 1
 13 292.916992188 l 1
 45 413.916992188 l 1
258 0 m 5
 424 688 l 1
 546 688 l 1
 376 0 l 1
 258 0 l 5
237 0 m 5
 51.1376953125 390 l 1
 45 414 l 1
 179 414 l 1
 355 0 l 5
 237 0 l 5
EndSplineSet
EndChar

StartChar: infinity
Encoding: 322 8734 308
Width: 778
VWidth: 0
Flags: HMW
LayerCount: 2
Fore
SplineSet
33 302 m 1
 152 302 l 1
 152 258 179 221 230 221 c 3
 280.087890625 221 300.317382812 252.251953125 342 319 c 0
 415.688476562 437 453.028320312 494 558 494 c 3
 677 494 745 402 745 303 c 1
 626 303 l 1
 626 346 599 384 548 384 c 3
 496.912109375 384 473.975585938 350.623046875 436 287 c 0
 367.358398438 172 326.990234375 111 220 111 c 3
 101 111 33 204 33 302 c 1
33 302 m 1
 33 401 101 494 220 494 c 3
 327.536132812 494 368.59375 432 432 322 c 0
 470.075195312 255.946289062 495.272460938 221 548 221 c 3
 599 221 626 259 626 303 c 1
 745 303 l 1
 745 204 677 111 558 111 c 3
 456.564453125 111 417.6796875 160 346 284 c 0
 312.1328125 342.586914062 284.587890625 384 230 384 c 3
 179 384 152 347 152 302 c 1
 33 302 l 1
EndSplineSet
EndChar

StartChar: integral
Encoding: 323 8747 309
Width: 354
VWidth: 0
Flags: HMW
LayerCount: 2
Fore
SplineSet
199 20 m 2
 199 -117 132 -170 36 -170 c 3
 9 -170 -18 -162.5 -32 -152 c 1
 -32 -50 l 1
 -18.6669921875 -54.6666666667 -6 -57 8 -57 c 3
 48 -57 70 -32.4054054054 70 13 c 2
 70 546 l 2
 70 689 170.84765625 723 242 723 c 3
 259.540039062 723 273.7421875 720.727539062 283 718 c 1
 303 608 l 1
 293.943359375 610 281.8671875 612 268 612 c 3
 231.583007812 612 199 594 199 546 c 2
 199 20 l 2
EndSplineSet
EndChar

StartChar: approxequal
Encoding: 324 8776 310
Width: 501
VWidth: 0
Flags: HMW
LayerCount: 2
Fore
SplineSet
42 232 m 1
 68.302734375 256.700195312 110.0234375 289 159 289 c 3
 195.666992188 289 222.127929688 275.260742188 254 253.934570312 c 0
 287 231.854492188 312.630859375 219 347 219 c 3
 388.4140625 219 422.345703125 244.650390625 459 276 c 1
 459 168 l 5
 436.307617188 140.450195312 393.646484375 111 341 111 c 7
 304.411132812 111 281.735351562 123.258789062 246 146.244140625 c 4
 211.428710938 168.48046875 188.720703125 181 154 181 c 7
 105.859375 181 72.826171875 151.549804688 42 124 c 5
 42 232 l 1
42 425 m 1
 68.302734375 449.700195312 110.0234375 482 159 482 c 3
 195.666992188 482 222.127929688 468.260742188 254 446.934570312 c 0
 287 424.854492188 312.630859375 412 347 412 c 3
 388.4140625 412 422.345703125 437.650390625 459 469 c 1
 459 361 l 1
 436.307617188 333.450195312 393.646484375 304 341 304 c 3
 304.411132812 304 281.735351562 316.258789062 246 339.244140625 c 0
 211.428710938 361.48046875 188.720703125 374 154 374 c 3
 105.859375 374 72.826171875 344.549804688 42 317 c 1
 42 425 l 1
EndSplineSet
EndChar

StartChar: notequal
Encoding: 325 8800 311
Width: 510
VWidth: 0
Flags: HMW
LayerCount: 2
Fore
SplineSet
397 558 m 1
 214 48 l 5
 121 48 l 1
 304 558 l 1
 397 558 l 1
EndSplineSet
Refer: 91 61 N 1 0 0 1 3 0 2
EndChar

StartChar: lessequal
Encoding: 326 8804 312
Width: 472
VWidth: 0
Flags: HMW
LayerCount: 2
Fore
SplineSet
424 81 m 5
 38 224 l 5
 38 123 l 1
 424 -20 l 1
 424 81 l 5
424 261 m 5
 38 394 l 5
 38 301 l 5
 424 152 l 5
 424 261 l 5
424 450 m 5
 424 559 l 5
 38 410 l 5
 38 317 l 5
 424 450 l 5
EndSplineSet
EndChar

StartChar: greaterequal
Encoding: 327 8805 313
Width: 472
VWidth: 0
Flags: HMW
LayerCount: 2
Fore
SplineSet
48 81 m 5
 434 224 l 5
 434 123 l 1
 48 -20 l 1
 48 81 l 5
48 258 m 5
 434 394 l 5
 434 301 l 5
 48 152 l 5
 48 258 l 5
48 450 m 5
 48 559 l 5
 434 410 l 5
 434 317 l 5
 48 450 l 5
EndSplineSet
EndChar

StartChar: lozenge
Encoding: 328 9674 314
Width: 622
VWidth: 0
Flags: HMW
LayerCount: 2
Fore
SplineSet
154 344 m 1
 379 0 l 5
 243 0 l 5
 10 344 l 1
 154 344 l 1
612 344 m 1
 379 0 l 5
 243 0 l 5
 468 344 l 1
 612 344 l 1
468 344 m 1
 243 688 l 5
 379 688 l 5
 612 344 l 1
 468 344 l 1
10 344 m 1
 243 688 l 5
 379 688 l 5
 154 344 l 1
 10 344 l 1
EndSplineSet
EndChar

StartChar: uni00B5
Encoding: 116 181 318
Width: 542
VWidth: 0
Flags: HMW
LayerCount: 2
Fore
SplineSet
487 503 m 1
 487 0 l 1
 364 0 l 1
 363 143 l 1
 358 143 l 1
 358 503 l 1
 487 503 l 1
375 150 m 1
 375 55.2080078125 319 -7 235 -7 c 3
 168.557617188 -7 129 39.8291015625 129 89 c 1
 178 202 l 1
 178 156.455078125 196.3125 123.469726562 234 112.747070312 c 0
 242.643554688 110.288085938 252.305664062 109 263 109 c 3
 323.1015625 109 358 147.6484375 358 219 c 1
 375 150 l 1
49 -165 m 1
 49 503 l 1
 178 503 l 1
 178 -165 l 1
 49 -165 l 1
EndSplineSet
EndChar

StartChar: less
Encoding: 28 60 319
Width: 452
VWidth: 0
Flags: HMW
LayerCount: 2
Fore
SplineSet
414 147 m 1
 414 28 l 1
 28 217 l 1
 28 330 l 1
 414 147 l 1
414 405 m 1
 28 222 l 1
 28 335 l 1
 414 524 l 1
 414 405 l 1
EndSplineSet
EndChar

StartChar: asciicircum
Encoding: 62 94 321
Width: 511
VWidth: 0
Flags: HMW
LayerCount: 2
Fore
SplineSet
130 352 m 1
 304 688 l 1
 183 688 l 1
 7 352 l 1
 130 352 l 1
380 352 m 1
 503 352 l 1
 327 688 l 1
 206 688 l 1
 380 352 l 1
EndSplineSet
EndChar

StartChar: asciitilde
Encoding: 94 126 322
Width: 515
VWidth: 0
Flags: HMW
LayerCount: 2
Fore
SplineSet
497 392 m 5
 497 284.529296875 448 218 363 218 c 7
 308.876352163 218 273.99777928 241.351926342 236 267 c 4
 191.336426587 297.147409729 177.618164062 306 159 306 c 7
 131.438476562 306 117.2 287 110 215 c 5
 18 231 l 5
 18 339.705078125 69 407 156 407 c 7
 204.340795272 407 236.478622744 388.865429507 281 358 c 4
 325.640856465 327.051738889 338.23828125 319 358 319 c 7
 383.727539062 319 398.826086957 337 405 408 c 5
 497 392 l 5
EndSplineSet
EndChar

StartChar: logicalnot
Encoding: 107 172 323
Width: 501
VWidth: 0
Flags: HMW
LayerCount: 2
Fore
SplineSet
351 129 m 5
 351 366 l 5
 462 366 l 1
 462 129 l 1
 351 129 l 5
46 414 m 1
 462 414 l 1
 462 309 l 1
 19 309 l 1
 46 414 l 1
EndSplineSet
EndChar

StartChar: plusminus
Encoding: 112 177 326
Width: 493
VWidth: 0
Flags: HMW
LayerCount: 2
Fore
SplineSet
53 132 m 1
 455 132 l 1
 455 35 l 1
 28 35 l 1
 53 132 l 1
194 177 m 1
 194 569 l 1
 301 569 l 1
 301 177 l 1
 194 177 l 1
53 427 m 5
 455 427 l 5
 455 330 l 5
 28 330 l 5
 53 427 l 5
EndSplineSet
EndChar

StartChar: paragraph
Encoding: 117 182 327
Width: 601
VWidth: 0
Flags: HMW
LayerCount: 2
Fore
SplineSet
540 -125 m 1
 426 -125 l 1
 426 688 l 1
 540 688 l 1
 540 -125 l 1
307 261 m 1
 238 261 l 1
 92.5576171875 261 18 352.309570312 18 472 c 3
 18 594.885742188 96.31640625 688 249 688 c 1
 307 688 l 1
 307 583 l 1
 240 583 l 2
 167 583 132 537.151367188 132 475 c 3
 132 413.239257812 167 366 240 366 c 2
 307 366 l 1
 307 261 l 1
352 -125 m 1
 238 -125 l 1
 238 648 l 1
 280 688 l 1
 352 688 l 1
 352 -125 l 1
EndSplineSet
EndChar

StartChar: eth
Encoding: 175 240 331
Width: 558
VWidth: 0
Flags: HMW
LayerCount: 2
Fore
SplineSet
148 625 m 1
 458 705 l 1
 458 615 l 1
 129 528 l 1
 148 625 l 1
285 718 m 1
 410 664 533 496 533 308 c 1
 533 96 423.216796875 -12 268 -12 c 3
 117.778320312 -12 22 99.537109375 22 246 c 3
 22 395.680664062 121.401367188 493 246 493 c 3
 350 493 436 411.032226562 436 282 c 1
 392 244 l 1
 392 324.483398438 341.451171875 378 273 378 c 3
 204.548828125 378 154 324.483398438 154 244 c 3
 154 161.35546875 204.548828125 106 273 106 c 3
 341.451171875 106 392 161.35546875 392 244 c 1
 415 331 l 1
 415 500 309.491210938 602 132 710 c 1
 132 718 l 1
 285 718 l 1
EndSplineSet
EndChar

StartChar: a.ss01
Encoding: 333 -1 333
Width: 608
VWidth: 0
Flags: HMWO
AnchorPoint: "Top" 303 574 basechar 0
AnchorPoint: "Ogonek" 449 -1 basechar 0
LayerCount: 2
Fore
SplineSet
257 514 m 3
 370.1461046 514 444 432.221523437 444 330 c 1
 444 174 l 1
 444 71.6956040112 370.836328125 -11 255 -11 c 3
 114.328125 -11 25 103.261833422 25 252 c 3
 25 399.744682747 114.326171875 514 257 514 c 3
290 403 m 3
 201.73046875 403 155 335.007014654 155 252 c 3
 155 168.992593344 201.73046875 100 290 100 c 3
 377.61568287 100 424 168.992593344 424 252 c 3
 424 335.007014654 377.61568287 403 290 403 c 3
424 143 m 1
 424 202 l 1
 424 202 l 1
 424 302 l 1
 424 302 l 1
 424 359 l 1
 427 359 l 1
 428 503 l 1
 553 503 l 1
 553 0 l 1
 428 0 l 1
 427 143 l 1
 424 143 l 1
EndSplineSet
EndChar

StartChar: commasubnosp
Encoding: 343 806 343
Width: 236
VWidth: 0
GlyphClass: 2
Flags: HMW
AnchorPoint: "Bottom" 128 -41 mark 0
LayerCount: 2
Fore
SplineSet
65 -170 m 7
 96.625 -170 111 -160.303030303 111 -138 c 6
 111 -126 l 5
 59 -107 l 5
 59 -41 l 5
 193 -41 l 5
 193 -126 l 6
 193 -197 149.792792793 -237 84 -237 c 7
 70 -237 48 -234.3 33 -228 c 5
 33 -166 l 5
 40.4666666667 -168.4 53 -170 65 -170 c 7
EndSplineSet
EndChar

StartChar: .notdef
Encoding: 344 -1 344
Width: 648
VWidth: 0
Flags: HMW
LayerCount: 2
Fore
SplineSet
514 688 m 1
 514 578 l 1
 134 578 l 1
 134 688 l 1
 514 688 l 1
470 688 m 1
 586 688 l 1
 586 0 l 1
 470 0 l 1
 470 688 l 1
178 0 m 1
 62 0 l 1
 62 688 l 1
 178 688 l 1
 178 0 l 1
134 0 m 1
 134 110 l 5
 514 110 l 5
 514 0 l 1
 134 0 l 1
EndSplineSet
EndChar

StartChar: foursuperior
Encoding: 345 8308 345
Width: 376
VWidth: 0
Flags: HMW
LayerCount: 2
Fore
SplineSet
21 445 m 1
 59 446 l 1
 377 446 l 1
 362 364 l 1
 21 364 l 1
 21 445 l 1
217 287 m 1
 217 517 l 1
 325 550 l 5
 325 287 l 1
 217 287 l 1
21 445 m 1
 160 688 l 1
 277 688 l 1
 133 445 l 1
 21 445 l 1
EndSplineSet
EndChar

StartChar: zerosuperior
Encoding: 346 8304 346
Width: 376
VWidth: 0
Flags: HMW
LayerCount: 2
Fore
SplineSet
187 694 m 3
 297.46875 694 359 621.599609375 359 488 c 3
 359 353.3984375 297.46875 281 187 281 c 3
 77.5126953125 281 17 353.3984375 17 488 c 3
 17 621.599609375 77.5126953125 694 187 694 c 3
187 602 m 3
 148.0859375 602 126 570.278320312 126 488 c 7
 126 405.69921875 148.0859375 373 187 373 c 3
 226.900390625 373 250 405.69921875 250 488 c 7
 250 570.278320312 226.900390625 602 187 602 c 3
EndSplineSet
EndChar

StartChar: zero
Encoding: 347 48 347
Width: 606
VWidth: 0
Flags: HMW
LayerCount: 2
Fore
SplineSet
302 700 m 3
 474.95703125 700 574 576.854492188 574 346 c 7
 574 112.91796875 474.95703125 -12 302 -12 c 3
 130.3515625 -12 32 112.91796875 32 346 c 7
 32 576.854492188 130.3515625 700 302 700 c 3
302 579 m 3
 218.471679688 579 167 506.575195312 167 346 c 7
 167 183.342773438 218.471679688 109 302 109 c 3
 386.83984375 109 439 183.342773438 439 346 c 7
 439 506.575195312 386.83984375 579 302 579 c 3
EndSplineSet
Substitution2: "'tnum' Tabular Numbers lookup 3-1" zero.tnum
EndChar

StartChar: eight
Encoding: 355 56 355
Width: 566
VWidth: 0
Flags: HMW
LayerCount: 2
Fore
SplineSet
283 371 m 3
 454.403320312 371 543 304.220703125 543 188 c 3
 543 76.6572265625 448.212890625 -14 283 -14 c 3
 117.787109375 -14 23 75.759765625 23 186 c 3
 23 303.491210938 111.596679688 371 283 371 c 3
283 299 m 3
 202.552734375 299 160 253.467773438 160 200 c 3
 160 146.349609375 202.552734375 100 283 100 c 3
 364.129882812 100 406 147.739257812 406 203 c 3
 406 254.84765625 364.129882812 299 283 299 c 3
283 702 m 3
 433.504882812 702 523 612.860351562 523 515 c 3
 523 409.453125 445.893554688 336 283 336 c 3
 120.106445312 336 43 408.618164062 43 513 c 3
 43 611.942382812 132.495117188 702 283 702 c 3
283 590 m 3
 216.42578125 590 178 547.6875 178 498 c 3
 178 448.641601562 216.42578125 406 283 406 c 3
 349.57421875 406 388 449.568359375 388 500 c 3
 388 548.607421875 349.57421875 590 283 590 c 3
EndSplineSet
Substitution2: "'tnum' Tabular Numbers lookup 3-1" eight.tnum
EndChar

